<svg xmlns="http://www.w3.org/2000/svg" viewBox="0 0 1600 460" width="1600" height="460" role="img" aria-label="Illustrated header">
<defs><radialGradient id="g221525" cx="15.902846867742483%" cy="25.41591467289254%" r="55%"><stop offset="0%" stop-color="#7C3AED" stop-opacity="0.55"/><stop offset="70%" stop-color="#7C3AED" stop-opacity="0"/></radialGradient><radialGradient id="g228232" cx="82.72124966187403%" cy="32.22554967738688%" r="50%"><stop offset="0%" stop-color="#22D3EE" stop-opacity="0.4"/><stop offset="70%" stop-color="#22D3EE" stop-opacity="0"/></radialGradient><radialGradient id="g225596" cx="55.090544142527506%" cy="96%" r="60%"><stop offset="0%" stop-color="#2DD4BF" stop-opacity="0.38"/><stop offset="70%" stop-color="#2DD4BF" stop-opacity="0"/></radialGradient>
<linearGradient id="edge22" x1="0" y1="0" x2="0" y2="1"><stop offset="0%" stop-color="#5BC8FF" stop-opacity="0.5"/><stop offset="100%" stop-color="#5BC8FF" stop-opacity="0"/></linearGradient></defs>
<rect width="1600" height="460" fill="#05070E"/>
<rect width="1600" height="460" fill="url(#g221525)"/><rect width="1600" height="460" fill="url(#g228232)"/><rect width="1600" height="460" fill="url(#g225596)"/>
<g opacity="0.06"><circle cx="40" cy="40" r="1.3" fill="#EAF1FB"/><circle cx="40" cy="86" r="1.3" fill="#EAF1FB"/><circle cx="40" cy="132" r="1.3" fill="#EAF1FB"/><circle cx="40" cy="178" r="1.3" fill="#EAF1FB"/><circle cx="40" cy="224" r="1.3" fill="#EAF1FB"/><circle cx="40" cy="270" r="1.3" fill="#EAF1FB"/><circle cx="40" cy="316" r="1.3" fill="#EAF1FB"/><circle cx="40" cy="362" r="1.3" fill="#EAF1FB"/><circle cx="40" cy="408" r="1.3" fill="#EAF1FB"/><circle cx="40" cy="454" r="1.3" fill="#EAF1FB"/><circle cx="86" cy="40" r="1.3" fill="#EAF1FB"/><circle cx="86" cy="86" r="1.3" fill="#EAF1FB"/><circle cx="86" cy="132" r="1.3" fill="#EAF1FB"/><circle cx="86" cy="178" r="1.3" fill="#EAF1FB"/><circle cx="86" cy="224" r="1.3" fill="#EAF1FB"/><circle cx="86" cy="270" r="1.3" fill="#EAF1FB"/><circle cx="86" cy="316" r="1.3" fill="#EAF1FB"/><circle cx="86" cy="362" r="1.3" fill="#EAF1FB"/><circle cx="86" cy="408" r="1.3" fill="#EAF1FB"/><circle cx="86" cy="454" r="1.3" fill="#EAF1FB"/><circle cx="132" cy="40" r="1.3" fill="#EAF1FB"/><circle cx="132" cy="86" r="1.3" fill="#EAF1FB"/><circle cx="132" cy="132" r="1.3" fill="#EAF1FB"/><circle cx="132" cy="178" r="1.3" fill="#EAF1FB"/><circle cx="132" cy="224" r="1.3" fill="#EAF1FB"/><circle cx="132" cy="270" r="1.3" fill="#EAF1FB"/><circle cx="132" cy="316" r="1.3" fill="#EAF1FB"/><circle cx="132" cy="362" r="1.3" fill="#EAF1FB"/><circle cx="132" cy="408" r="1.3" fill="#EAF1FB"/><circle cx="132" cy="454" r="1.3" fill="#EAF1FB"/><circle cx="178" cy="40" r="1.3" fill="#EAF1FB"/><circle cx="178" cy="86" r="1.3" fill="#EAF1FB"/><circle cx="178" cy="132" r="1.3" fill="#EAF1FB"/><circle cx="178" cy="178" r="1.3" fill="#EAF1FB"/><circle cx="178" cy="224" r="1.3" fill="#EAF1FB"/><circle cx="178" cy="270" r="1.3" fill="#EAF1FB"/><circle cx="178" cy="316" r="1.3" fill="#EAF1FB"/><circle cx="178" cy="362" r="1.3" fill="#EAF1FB"/><circle cx="178" cy="408" r="1.3" fill="#EAF1FB"/><circle cx="178" cy="454" r="1.3" fill="#EAF1FB"/><circle cx="224" cy="40" r="1.3" fill="#EAF1FB"/><circle cx="224" cy="86" r="1.3" fill="#EAF1FB"/><circle cx="224" cy="132" r="1.3" fill="#EAF1FB"/><circle cx="224" cy="178" r="1.3" fill="#EAF1FB"/><circle cx="224" cy="224" r="1.3" fill="#EAF1FB"/><circle cx="224" cy="270" r="1.3" fill="#EAF1FB"/><circle cx="224" cy="316" r="1.3" fill="#EAF1FB"/><circle cx="224" cy="362" r="1.3" fill="#EAF1FB"/><circle cx="224" cy="408" r="1.3" fill="#EAF1FB"/><circle cx="224" cy="454" r="1.3" fill="#EAF1FB"/><circle cx="270" cy="40" r="1.3" fill="#EAF1FB"/><circle cx="270" cy="86" r="1.3" fill="#EAF1FB"/><circle cx="270" cy="132" r="1.3" fill="#EAF1FB"/><circle cx="270" cy="178" r="1.3" fill="#EAF1FB"/><circle cx="270" cy="224" r="1.3" fill="#EAF1FB"/><circle cx="270" cy="270" r="1.3" fill="#EAF1FB"/><circle cx="270" cy="316" r="1.3" fill="#EAF1FB"/><circle cx="270" cy="362" r="1.3" fill="#EAF1FB"/><circle cx="270" cy="408" r="1.3" fill="#EAF1FB"/><circle cx="270" cy="454" r="1.3" fill="#EAF1FB"/><circle cx="316" cy="40" r="1.3" fill="#EAF1FB"/><circle cx="316" cy="86" r="1.3" fill="#EAF1FB"/><circle cx="316" cy="132" r="1.3" fill="#EAF1FB"/><circle cx="316" cy="178" r="1.3" fill="#EAF1FB"/><circle cx="316" cy="224" r="1.3" fill="#EAF1FB"/><circle cx="316" cy="270" r="1.3" fill="#EAF1FB"/><circle cx="316" cy="316" r="1.3" fill="#EAF1FB"/><circle cx="316" cy="362" r="1.3" fill="#EAF1FB"/><circle cx="316" cy="408" r="1.3" fill="#EAF1FB"/><circle cx="316" cy="454" r="1.3" fill="#EAF1FB"/><circle cx="362" cy="40" r="1.3" fill="#EAF1FB"/><circle cx="362" cy="86" r="1.3" fill="#EAF1FB"/><circle cx="362" cy="132" r="1.3" fill="#EAF1FB"/><circle cx="362" cy="178" r="1.3" fill="#EAF1FB"/><circle cx="362" cy="224" r="1.3" fill="#EAF1FB"/><circle cx="362" cy="270" r="1.3" fill="#EAF1FB"/><circle cx="362" cy="316" r="1.3" fill="#EAF1FB"/><circle cx="362" cy="362" r="1.3" fill="#EAF1FB"/><circle cx="362" cy="408" r="1.3" fill="#EAF1FB"/><circle cx="362" cy="454" r="1.3" fill="#EAF1FB"/><circle cx="408" cy="40" r="1.3" fill="#EAF1FB"/><circle cx="408" cy="86" r="1.3" fill="#EAF1FB"/><circle cx="408" cy="132" r="1.3" fill="#EAF1FB"/><circle cx="408" cy="178" r="1.3" fill="#EAF1FB"/><circle cx="408" cy="224" r="1.3" fill="#EAF1FB"/><circle cx="408" cy="270" r="1.3" fill="#EAF1FB"/><circle cx="408" cy="316" r="1.3" fill="#EAF1FB"/><circle cx="408" cy="362" r="1.3" fill="#EAF1FB"/><circle cx="408" cy="408" r="1.3" fill="#EAF1FB"/><circle cx="408" cy="454" r="1.3" fill="#EAF1FB"/><circle cx="454" cy="40" r="1.3" fill="#EAF1FB"/><circle cx="454" cy="86" r="1.3" fill="#EAF1FB"/><circle cx="454" cy="132" r="1.3" fill="#EAF1FB"/><circle cx="454" cy="178" r="1.3" fill="#EAF1FB"/><circle cx="454" cy="224" r="1.3" fill="#EAF1FB"/><circle cx="454" cy="270" r="1.3" fill="#EAF1FB"/><circle cx="454" cy="316" r="1.3" fill="#EAF1FB"/><circle cx="454" cy="362" r="1.3" fill="#EAF1FB"/><circle cx="454" cy="408" r="1.3" fill="#EAF1FB"/><circle cx="454" cy="454" r="1.3" fill="#EAF1FB"/><circle cx="500" cy="40" r="1.3" fill="#EAF1FB"/><circle cx="500" cy="86" r="1.3" fill="#EAF1FB"/><circle cx="500" cy="132" r="1.3" fill="#EAF1FB"/><circle cx="500" cy="178" r="1.3" fill="#EAF1FB"/><circle cx="500" cy="224" r="1.3" fill="#EAF1FB"/><circle cx="500" cy="270" r="1.3" fill="#EAF1FB"/><circle cx="500" cy="316" r="1.3" fill="#EAF1FB"/><circle cx="500" cy="362" r="1.3" fill="#EAF1FB"/><circle cx="500" cy="408" r="1.3" fill="#EAF1FB"/><circle cx="500" cy="454" r="1.3" fill="#EAF1FB"/><circle cx="546" cy="40" r="1.3" fill="#EAF1FB"/><circle cx="546" cy="86" r="1.3" fill="#EAF1FB"/><circle cx="546" cy="132" r="1.3" fill="#EAF1FB"/><circle cx="546" cy="178" r="1.3" fill="#EAF1FB"/><circle cx="546" cy="224" r="1.3" fill="#EAF1FB"/><circle cx="546" cy="270" r="1.3" fill="#EAF1FB"/><circle cx="546" cy="316" r="1.3" fill="#EAF1FB"/><circle cx="546" cy="362" r="1.3" fill="#EAF1FB"/><circle cx="546" cy="408" r="1.3" fill="#EAF1FB"/><circle cx="546" cy="454" r="1.3" fill="#EAF1FB"/><circle cx="592" cy="40" r="1.3" fill="#EAF1FB"/><circle cx="592" cy="86" r="1.3" fill="#EAF1FB"/><circle cx="592" cy="132" r="1.3" fill="#EAF1FB"/><circle cx="592" cy="178" r="1.3" fill="#EAF1FB"/><circle cx="592" cy="224" r="1.3" fill="#EAF1FB"/><circle cx="592" cy="270" r="1.3" fill="#EAF1FB"/><circle cx="592" cy="316" r="1.3" fill="#EAF1FB"/><circle cx="592" cy="362" r="1.3" fill="#EAF1FB"/><circle cx="592" cy="408" r="1.3" fill="#EAF1FB"/><circle cx="592" cy="454" r="1.3" fill="#EAF1FB"/><circle cx="638" cy="40" r="1.3" fill="#EAF1FB"/><circle cx="638" cy="86" r="1.3" fill="#EAF1FB"/><circle cx="638" cy="132" r="1.3" fill="#EAF1FB"/><circle cx="638" cy="178" r="1.3" fill="#EAF1FB"/><circle cx="638" cy="224" r="1.3" fill="#EAF1FB"/><circle cx="638" cy="270" r="1.3" fill="#EAF1FB"/><circle cx="638" cy="316" r="1.3" fill="#EAF1FB"/><circle cx="638" cy="362" r="1.3" fill="#EAF1FB"/><circle cx="638" cy="408" r="1.3" fill="#EAF1FB"/><circle cx="638" cy="454" r="1.3" fill="#EAF1FB"/><circle cx="684" cy="40" r="1.3" fill="#EAF1FB"/><circle cx="684" cy="86" r="1.3" fill="#EAF1FB"/><circle cx="684" cy="132" r="1.3" fill="#EAF1FB"/><circle cx="684" cy="178" r="1.3" fill="#EAF1FB"/><circle cx="684" cy="224" r="1.3" fill="#EAF1FB"/><circle cx="684" cy="270" r="1.3" fill="#EAF1FB"/><circle cx="684" cy="316" r="1.3" fill="#EAF1FB"/><circle cx="684" cy="362" r="1.3" fill="#EAF1FB"/><circle cx="684" cy="408" r="1.3" fill="#EAF1FB"/><circle cx="684" cy="454" r="1.3" fill="#EAF1FB"/><circle cx="730" cy="40" r="1.3" fill="#EAF1FB"/><circle cx="730" cy="86" r="1.3" fill="#EAF1FB"/><circle cx="730" cy="132" r="1.3" fill="#EAF1FB"/><circle cx="730" cy="178" r="1.3" fill="#EAF1FB"/><circle cx="730" cy="224" r="1.3" fill="#EAF1FB"/><circle cx="730" cy="270" r="1.3" fill="#EAF1FB"/><circle cx="730" cy="316" r="1.3" fill="#EAF1FB"/><circle cx="730" cy="362" r="1.3" fill="#EAF1FB"/><circle cx="730" cy="408" r="1.3" fill="#EAF1FB"/><circle cx="730" cy="454" r="1.3" fill="#EAF1FB"/><circle cx="776" cy="40" r="1.3" fill="#EAF1FB"/><circle cx="776" cy="86" r="1.3" fill="#EAF1FB"/><circle cx="776" cy="132" r="1.3" fill="#EAF1FB"/><circle cx="776" cy="178" r="1.3" fill="#EAF1FB"/><circle cx="776" cy="224" r="1.3" fill="#EAF1FB"/><circle cx="776" cy="270" r="1.3" fill="#EAF1FB"/><circle cx="776" cy="316" r="1.3" fill="#EAF1FB"/><circle cx="776" cy="362" r="1.3" fill="#EAF1FB"/><circle cx="776" cy="408" r="1.3" fill="#EAF1FB"/><circle cx="776" cy="454" r="1.3" fill="#EAF1FB"/><circle cx="822" cy="40" r="1.3" fill="#EAF1FB"/><circle cx="822" cy="86" r="1.3" fill="#EAF1FB"/><circle cx="822" cy="132" r="1.3" fill="#EAF1FB"/><circle cx="822" cy="178" r="1.3" fill="#EAF1FB"/><circle cx="822" cy="224" r="1.3" fill="#EAF1FB"/><circle cx="822" cy="270" r="1.3" fill="#EAF1FB"/><circle cx="822" cy="316" r="1.3" fill="#EAF1FB"/><circle cx="822" cy="362" r="1.3" fill="#EAF1FB"/><circle cx="822" cy="408" r="1.3" fill="#EAF1FB"/><circle cx="822" cy="454" r="1.3" fill="#EAF1FB"/><circle cx="868" cy="40" r="1.3" fill="#EAF1FB"/><circle cx="868" cy="86" r="1.3" fill="#EAF1FB"/><circle cx="868" cy="132" r="1.3" fill="#EAF1FB"/><circle cx="868" cy="178" r="1.3" fill="#EAF1FB"/><circle cx="868" cy="224" r="1.3" fill="#EAF1FB"/><circle cx="868" cy="270" r="1.3" fill="#EAF1FB"/><circle cx="868" cy="316" r="1.3" fill="#EAF1FB"/><circle cx="868" cy="362" r="1.3" fill="#EAF1FB"/><circle cx="868" cy="408" r="1.3" fill="#EAF1FB"/><circle cx="868" cy="454" r="1.3" fill="#EAF1FB"/><circle cx="914" cy="40" r="1.3" fill="#EAF1FB"/><circle cx="914" cy="86" r="1.3" fill="#EAF1FB"/><circle cx="914" cy="132" r="1.3" fill="#EAF1FB"/><circle cx="914" cy="178" r="1.3" fill="#EAF1FB"/><circle cx="914" cy="224" r="1.3" fill="#EAF1FB"/><circle cx="914" cy="270" r="1.3" fill="#EAF1FB"/><circle cx="914" cy="316" r="1.3" fill="#EAF1FB"/><circle cx="914" cy="362" r="1.3" fill="#EAF1FB"/><circle cx="914" cy="408" r="1.3" fill="#EAF1FB"/><circle cx="914" cy="454" r="1.3" fill="#EAF1FB"/><circle cx="960" cy="40" r="1.3" fill="#EAF1FB"/><circle cx="960" cy="86" r="1.3" fill="#EAF1FB"/><circle cx="960" cy="132" r="1.3" fill="#EAF1FB"/><circle cx="960" cy="178" r="1.3" fill="#EAF1FB"/><circle cx="960" cy="224" r="1.3" fill="#EAF1FB"/><circle cx="960" cy="270" r="1.3" fill="#EAF1FB"/><circle cx="960" cy="316" r="1.3" fill="#EAF1FB"/><circle cx="960" cy="362" r="1.3" fill="#EAF1FB"/><circle cx="960" cy="408" r="1.3" fill="#EAF1FB"/><circle cx="960" cy="454" r="1.3" fill="#EAF1FB"/><circle cx="1006" cy="40" r="1.3" fill="#EAF1FB"/><circle cx="1006" cy="86" r="1.3" fill="#EAF1FB"/><circle cx="1006" cy="132" r="1.3" fill="#EAF1FB"/><circle cx="1006" cy="178" r="1.3" fill="#EAF1FB"/><circle cx="1006" cy="224" r="1.3" fill="#EAF1FB"/><circle cx="1006" cy="270" r="1.3" fill="#EAF1FB"/><circle cx="1006" cy="316" r="1.3" fill="#EAF1FB"/><circle cx="1006" cy="362" r="1.3" fill="#EAF1FB"/><circle cx="1006" cy="408" r="1.3" fill="#EAF1FB"/><circle cx="1006" cy="454" r="1.3" fill="#EAF1FB"/><circle cx="1052" cy="40" r="1.3" fill="#EAF1FB"/><circle cx="1052" cy="86" r="1.3" fill="#EAF1FB"/><circle cx="1052" cy="132" r="1.3" fill="#EAF1FB"/><circle cx="1052" cy="178" r="1.3" fill="#EAF1FB"/><circle cx="1052" cy="224" r="1.3" fill="#EAF1FB"/><circle cx="1052" cy="270" r="1.3" fill="#EAF1FB"/><circle cx="1052" cy="316" r="1.3" fill="#EAF1FB"/><circle cx="1052" cy="362" r="1.3" fill="#EAF1FB"/><circle cx="1052" cy="408" r="1.3" fill="#EAF1FB"/><circle cx="1052" cy="454" r="1.3" fill="#EAF1FB"/><circle cx="1098" cy="40" r="1.3" fill="#EAF1FB"/><circle cx="1098" cy="86" r="1.3" fill="#EAF1FB"/><circle cx="1098" cy="132" r="1.3" fill="#EAF1FB"/><circle cx="1098" cy="178" r="1.3" fill="#EAF1FB"/><circle cx="1098" cy="224" r="1.3" fill="#EAF1FB"/><circle cx="1098" cy="270" r="1.3" fill="#EAF1FB"/><circle cx="1098" cy="316" r="1.3" fill="#EAF1FB"/><circle cx="1098" cy="362" r="1.3" fill="#EAF1FB"/><circle cx="1098" cy="408" r="1.3" fill="#EAF1FB"/><circle cx="1098" cy="454" r="1.3" fill="#EAF1FB"/><circle cx="1144" cy="40" r="1.3" fill="#EAF1FB"/><circle cx="1144" cy="86" r="1.3" fill="#EAF1FB"/><circle cx="1144" cy="132" r="1.3" fill="#EAF1FB"/><circle cx="1144" cy="178" r="1.3" fill="#EAF1FB"/><circle cx="1144" cy="224" r="1.3" fill="#EAF1FB"/><circle cx="1144" cy="270" r="1.3" fill="#EAF1FB"/><circle cx="1144" cy="316" r="1.3" fill="#EAF1FB"/><circle cx="1144" cy="362" r="1.3" fill="#EAF1FB"/><circle cx="1144" cy="408" r="1.3" fill="#EAF1FB"/><circle cx="1144" cy="454" r="1.3" fill="#EAF1FB"/><circle cx="1190" cy="40" r="1.3" fill="#EAF1FB"/><circle cx="1190" cy="86" r="1.3" fill="#EAF1FB"/><circle cx="1190" cy="132" r="1.3" fill="#EAF1FB"/><circle cx="1190" cy="178" r="1.3" fill="#EAF1FB"/><circle cx="1190" cy="224" r="1.3" fill="#EAF1FB"/><circle cx="1190" cy="270" r="1.3" fill="#EAF1FB"/><circle cx="1190" cy="316" r="1.3" fill="#EAF1FB"/><circle cx="1190" cy="362" r="1.3" fill="#EAF1FB"/><circle cx="1190" cy="408" r="1.3" fill="#EAF1FB"/><circle cx="1190" cy="454" r="1.3" fill="#EAF1FB"/><circle cx="1236" cy="40" r="1.3" fill="#EAF1FB"/><circle cx="1236" cy="86" r="1.3" fill="#EAF1FB"/><circle cx="1236" cy="132" r="1.3" fill="#EAF1FB"/><circle cx="1236" cy="178" r="1.3" fill="#EAF1FB"/><circle cx="1236" cy="224" r="1.3" fill="#EAF1FB"/><circle cx="1236" cy="270" r="1.3" fill="#EAF1FB"/><circle cx="1236" cy="316" r="1.3" fill="#EAF1FB"/><circle cx="1236" cy="362" r="1.3" fill="#EAF1FB"/><circle cx="1236" cy="408" r="1.3" fill="#EAF1FB"/><circle cx="1236" cy="454" r="1.3" fill="#EAF1FB"/><circle cx="1282" cy="40" r="1.3" fill="#EAF1FB"/><circle cx="1282" cy="86" r="1.3" fill="#EAF1FB"/><circle cx="1282" cy="132" r="1.3" fill="#EAF1FB"/><circle cx="1282" cy="178" r="1.3" fill="#EAF1FB"/><circle cx="1282" cy="224" r="1.3" fill="#EAF1FB"/><circle cx="1282" cy="270" r="1.3" fill="#EAF1FB"/><circle cx="1282" cy="316" r="1.3" fill="#EAF1FB"/><circle cx="1282" cy="362" r="1.3" fill="#EAF1FB"/><circle cx="1282" cy="408" r="1.3" fill="#EAF1FB"/><circle cx="1282" cy="454" r="1.3" fill="#EAF1FB"/><circle cx="1328" cy="40" r="1.3" fill="#EAF1FB"/><circle cx="1328" cy="86" r="1.3" fill="#EAF1FB"/><circle cx="1328" cy="132" r="1.3" fill="#EAF1FB"/><circle cx="1328" cy="178" r="1.3" fill="#EAF1FB"/><circle cx="1328" cy="224" r="1.3" fill="#EAF1FB"/><circle cx="1328" cy="270" r="1.3" fill="#EAF1FB"/><circle cx="1328" cy="316" r="1.3" fill="#EAF1FB"/><circle cx="1328" cy="362" r="1.3" fill="#EAF1FB"/><circle cx="1328" cy="408" r="1.3" fill="#EAF1FB"/><circle cx="1328" cy="454" r="1.3" fill="#EAF1FB"/><circle cx="1374" cy="40" r="1.3" fill="#EAF1FB"/><circle cx="1374" cy="86" r="1.3" fill="#EAF1FB"/><circle cx="1374" cy="132" r="1.3" fill="#EAF1FB"/><circle cx="1374" cy="178" r="1.3" fill="#EAF1FB"/><circle cx="1374" cy="224" r="1.3" fill="#EAF1FB"/><circle cx="1374" cy="270" r="1.3" fill="#EAF1FB"/><circle cx="1374" cy="316" r="1.3" fill="#EAF1FB"/><circle cx="1374" cy="362" r="1.3" fill="#EAF1FB"/><circle cx="1374" cy="408" r="1.3" fill="#EAF1FB"/><circle cx="1374" cy="454" r="1.3" fill="#EAF1FB"/><circle cx="1420" cy="40" r="1.3" fill="#EAF1FB"/><circle cx="1420" cy="86" r="1.3" fill="#EAF1FB"/><circle cx="1420" cy="132" r="1.3" fill="#EAF1FB"/><circle cx="1420" cy="178" r="1.3" fill="#EAF1FB"/><circle cx="1420" cy="224" r="1.3" fill="#EAF1FB"/><circle cx="1420" cy="270" r="1.3" fill="#EAF1FB"/><circle cx="1420" cy="316" r="1.3" fill="#EAF1FB"/><circle cx="1420" cy="362" r="1.3" fill="#EAF1FB"/><circle cx="1420" cy="408" r="1.3" fill="#EAF1FB"/><circle cx="1420" cy="454" r="1.3" fill="#EAF1FB"/><circle cx="1466" cy="40" r="1.3" fill="#EAF1FB"/><circle cx="1466" cy="86" r="1.3" fill="#EAF1FB"/><circle cx="1466" cy="132" r="1.3" fill="#EAF1FB"/><circle cx="1466" cy="178" r="1.3" fill="#EAF1FB"/><circle cx="1466" cy="224" r="1.3" fill="#EAF1FB"/><circle cx="1466" cy="270" r="1.3" fill="#EAF1FB"/><circle cx="1466" cy="316" r="1.3" fill="#EAF1FB"/><circle cx="1466" cy="362" r="1.3" fill="#EAF1FB"/><circle cx="1466" cy="408" r="1.3" fill="#EAF1FB"/><circle cx="1466" cy="454" r="1.3" fill="#EAF1FB"/><circle cx="1512" cy="40" r="1.3" fill="#EAF1FB"/><circle cx="1512" cy="86" r="1.3" fill="#EAF1FB"/><circle cx="1512" cy="132" r="1.3" fill="#EAF1FB"/><circle cx="1512" cy="178" r="1.3" fill="#EAF1FB"/><circle cx="1512" cy="224" r="1.3" fill="#EAF1FB"/><circle cx="1512" cy="270" r="1.3" fill="#EAF1FB"/><circle cx="1512" cy="316" r="1.3" fill="#EAF1FB"/><circle cx="1512" cy="362" r="1.3" fill="#EAF1FB"/><circle cx="1512" cy="408" r="1.3" fill="#EAF1FB"/><circle cx="1512" cy="454" r="1.3" fill="#EAF1FB"/><circle cx="1558" cy="40" r="1.3" fill="#EAF1FB"/><circle cx="1558" cy="86" r="1.3" fill="#EAF1FB"/><circle cx="1558" cy="132" r="1.3" fill="#EAF1FB"/><circle cx="1558" cy="178" r="1.3" fill="#EAF1FB"/><circle cx="1558" cy="224" r="1.3" fill="#EAF1FB"/><circle cx="1558" cy="270" r="1.3" fill="#EAF1FB"/><circle cx="1558" cy="316" r="1.3" fill="#EAF1FB"/><circle cx="1558" cy="362" r="1.3" fill="#EAF1FB"/><circle cx="1558" cy="408" r="1.3" fill="#EAF1FB"/><circle cx="1558" cy="454" r="1.3" fill="#EAF1FB"/></g>
<g><path d="M1180 142 L1252 174 L1252 236 Q1252 300 1180 326 Q1108 300 1108 236 L1108 174 Z" fill="none" stroke="#5BC8FF" stroke-opacity="0.8" stroke-width="3"/><path d="M1180 142 L1252 174 L1252 236 Q1252 300 1180 326 Q1108 300 1108 236 L1108 174 Z" fill="#5BC8FF" fill-opacity="0.08"/><path d="M1150 230 l20 22 l42 -46" fill="none" stroke="#5BC8FF" stroke-opacity="0.9" stroke-width="5" stroke-linecap="round" stroke-linejoin="round"/></g>
<rect x="0" y="0" width="1600" height="3" fill="url(#edge22)"/>
</svg>