<svg xmlns="http://www.w3.org/2000/svg" viewBox="0 0 1600 460" width="1600" height="460" role="img" aria-label="Illustrated header">
<defs><radialGradient id="g882725" cx="27.66647744551301%" cy="25.447166902711615%" r="55%"><stop offset="0%" stop-color="#7C3AED" stop-opacity="0.55"/><stop offset="70%" stop-color="#7C3AED" stop-opacity="0"/></radialGradient><radialGradient id="g888536" cx="85.6963156937909%" cy="36.919492154265754%" r="50%"><stop offset="0%" stop-color="#5BC8FF" stop-opacity="0.4"/><stop offset="70%" stop-color="#5BC8FF" stop-opacity="0"/></radialGradient><radialGradient id="g885996" cx="59.16175391897559%" cy="96%" r="60%"><stop offset="0%" stop-color="#2DD4BF" stop-opacity="0.38"/><stop offset="70%" stop-color="#2DD4BF" stop-opacity="0"/></radialGradient>
<linearGradient id="edge88" x1="0" y1="0" x2="0" y2="1"><stop offset="0%" stop-color="#2DD4BF" stop-opacity="0.5"/><stop offset="100%" stop-color="#2DD4BF" stop-opacity="0"/></linearGradient></defs>
<rect width="1600" height="460" fill="#05070E"/>
<rect width="1600" height="460" fill="url(#g882725)"/><rect width="1600" height="460" fill="url(#g888536)"/><rect width="1600" height="460" fill="url(#g885996)"/>
<g opacity="0.06"><circle cx="40" cy="40" r="1.3" fill="#EAF1FB"/><circle cx="40" cy="86" r="1.3" fill="#EAF1FB"/><circle cx="40" cy="132" r="1.3" fill="#EAF1FB"/><circle cx="40" cy="178" r="1.3" fill="#EAF1FB"/><circle cx="40" cy="224" r="1.3" fill="#EAF1FB"/><circle cx="40" cy="270" r="1.3" fill="#EAF1FB"/><circle cx="40" cy="316" r="1.3" fill="#EAF1FB"/><circle cx="40" cy="362" r="1.3" fill="#EAF1FB"/><circle cx="40" cy="408" r="1.3" fill="#EAF1FB"/><circle cx="40" cy="454" r="1.3" fill="#EAF1FB"/><circle cx="86" cy="40" r="1.3" fill="#EAF1FB"/><circle cx="86" cy="86" r="1.3" fill="#EAF1FB"/><circle cx="86" cy="132" r="1.3" fill="#EAF1FB"/><circle cx="86" cy="178" r="1.3" fill="#EAF1FB"/><circle cx="86" cy="224" r="1.3" fill="#EAF1FB"/><circle cx="86" cy="270" r="1.3" fill="#EAF1FB"/><circle cx="86" cy="316" r="1.3" fill="#EAF1FB"/><circle cx="86" cy="362" r="1.3" fill="#EAF1FB"/><circle cx="86" cy="408" r="1.3" fill="#EAF1FB"/><circle cx="86" cy="454" r="1.3" fill="#EAF1FB"/><circle cx="132" cy="40" r="1.3" fill="#EAF1FB"/><circle cx="132" cy="86" r="1.3" fill="#EAF1FB"/><circle cx="132" cy="132" r="1.3" fill="#EAF1FB"/><circle cx="132" cy="178" r="1.3" fill="#EAF1FB"/><circle cx="132" cy="224" r="1.3" fill="#EAF1FB"/><circle cx="132" cy="270" r="1.3" fill="#EAF1FB"/><circle cx="132" cy="316" r="1.3" fill="#EAF1FB"/><circle cx="132" cy="362" r="1.3" fill="#EAF1FB"/><circle cx="132" cy="408" r="1.3" fill="#EAF1FB"/><circle cx="132" cy="454" r="1.3" fill="#EAF1FB"/><circle cx="178" cy="40" r="1.3" fill="#EAF1FB"/><circle cx="178" cy="86" r="1.3" fill="#EAF1FB"/><circle cx="178" cy="132" r="1.3" fill="#EAF1FB"/><circle cx="178" cy="178" r="1.3" fill="#EAF1FB"/><circle cx="178" cy="224" r="1.3" fill="#EAF1FB"/><circle cx="178" cy="270" r="1.3" fill="#EAF1FB"/><circle cx="178" cy="316" r="1.3" fill="#EAF1FB"/><circle cx="178" cy="362" r="1.3" fill="#EAF1FB"/><circle cx="178" cy="408" r="1.3" fill="#EAF1FB"/><circle cx="178" cy="454" r="1.3" fill="#EAF1FB"/><circle cx="224" cy="40" r="1.3" fill="#EAF1FB"/><circle cx="224" cy="86" r="1.3" fill="#EAF1FB"/><circle cx="224" cy="132" r="1.3" fill="#EAF1FB"/><circle cx="224" cy="178" r="1.3" fill="#EAF1FB"/><circle cx="224" cy="224" r="1.3" fill="#EAF1FB"/><circle cx="224" cy="270" r="1.3" fill="#EAF1FB"/><circle cx="224" cy="316" r="1.3" fill="#EAF1FB"/><circle cx="224" cy="362" r="1.3" fill="#EAF1FB"/><circle cx="224" cy="408" r="1.3" fill="#EAF1FB"/><circle cx="224" cy="454" r="1.3" fill="#EAF1FB"/><circle cx="270" cy="40" r="1.3" fill="#EAF1FB"/><circle cx="270" cy="86" r="1.3" fill="#EAF1FB"/><circle cx="270" cy="132" r="1.3" fill="#EAF1FB"/><circle cx="270" cy="178" r="1.3" fill="#EAF1FB"/><circle cx="270" cy="224" r="1.3" fill="#EAF1FB"/><circle cx="270" cy="270" r="1.3" fill="#EAF1FB"/><circle cx="270" cy="316" r="1.3" fill="#EAF1FB"/><circle cx="270" cy="362" r="1.3" fill="#EAF1FB"/><circle cx="270" cy="408" r="1.3" fill="#EAF1FB"/><circle cx="270" cy="454" r="1.3" fill="#EAF1FB"/><circle cx="316" cy="40" r="1.3" fill="#EAF1FB"/><circle cx="316" cy="86" r="1.3" fill="#EAF1FB"/><circle cx="316" cy="132" r="1.3" fill="#EAF1FB"/><circle cx="316" cy="178" r="1.3" fill="#EAF1FB"/><circle cx="316" cy="224" r="1.3" fill="#EAF1FB"/><circle cx="316" cy="270" r="1.3" fill="#EAF1FB"/><circle cx="316" cy="316" r="1.3" fill="#EAF1FB"/><circle cx="316" cy="362" r="1.3" fill="#EAF1FB"/><circle cx="316" cy="408" r="1.3" fill="#EAF1FB"/><circle cx="316" cy="454" r="1.3" fill="#EAF1FB"/><circle cx="362" cy="40" r="1.3" fill="#EAF1FB"/><circle cx="362" cy="86" r="1.3" fill="#EAF1FB"/><circle cx="362" cy="132" r="1.3" fill="#EAF1FB"/><circle cx="362" cy="178" r="1.3" fill="#EAF1FB"/><circle cx="362" cy="224" r="1.3" fill="#EAF1FB"/><circle cx="362" cy="270" r="1.3" fill="#EAF1FB"/><circle cx="362" cy="316" r="1.3" fill="#EAF1FB"/><circle cx="362" cy="362" r="1.3" fill="#EAF1FB"/><circle cx="362" cy="408" r="1.3" fill="#EAF1FB"/><circle cx="362" cy="454" r="1.3" fill="#EAF1FB"/><circle cx="408" cy="40" r="1.3" fill="#EAF1FB"/><circle cx="408" cy="86" r="1.3" fill="#EAF1FB"/><circle cx="408" cy="132" r="1.3" fill="#EAF1FB"/><circle cx="408" cy="178" r="1.3" fill="#EAF1FB"/><circle cx="408" cy="224" r="1.3" fill="#EAF1FB"/><circle cx="408" cy="270" r="1.3" fill="#EAF1FB"/><circle cx="408" cy="316" r="1.3" fill="#EAF1FB"/><circle cx="408" cy="362" r="1.3" fill="#EAF1FB"/><circle cx="408" cy="408" r="1.3" fill="#EAF1FB"/><circle cx="408" cy="454" r="1.3" fill="#EAF1FB"/><circle cx="454" cy="40" r="1.3" fill="#EAF1FB"/><circle cx="454" cy="86" r="1.3" fill="#EAF1FB"/><circle cx="454" cy="132" r="1.3" fill="#EAF1FB"/><circle cx="454" cy="178" r="1.3" fill="#EAF1FB"/><circle cx="454" cy="224" r="1.3" fill="#EAF1FB"/><circle cx="454" cy="270" r="1.3" fill="#EAF1FB"/><circle cx="454" cy="316" r="1.3" fill="#EAF1FB"/><circle cx="454" cy="362" r="1.3" fill="#EAF1FB"/><circle cx="454" cy="408" r="1.3" fill="#EAF1FB"/><circle cx="454" cy="454" r="1.3" fill="#EAF1FB"/><circle cx="500" cy="40" r="1.3" fill="#EAF1FB"/><circle cx="500" cy="86" r="1.3" fill="#EAF1FB"/><circle cx="500" cy="132" r="1.3" fill="#EAF1FB"/><circle cx="500" cy="178" r="1.3" fill="#EAF1FB"/><circle cx="500" cy="224" r="1.3" fill="#EAF1FB"/><circle cx="500" cy="270" r="1.3" fill="#EAF1FB"/><circle cx="500" cy="316" r="1.3" fill="#EAF1FB"/><circle cx="500" cy="362" r="1.3" fill="#EAF1FB"/><circle cx="500" cy="408" r="1.3" fill="#EAF1FB"/><circle cx="500" cy="454" r="1.3" fill="#EAF1FB"/><circle cx="546" cy="40" r="1.3" fill="#EAF1FB"/><circle cx="546" cy="86" r="1.3" fill="#EAF1FB"/><circle cx="546" cy="132" r="1.3" fill="#EAF1FB"/><circle cx="546" cy="178" r="1.3" fill="#EAF1FB"/><circle cx="546" cy="224" r="1.3" fill="#EAF1FB"/><circle cx="546" cy="270" r="1.3" fill="#EAF1FB"/><circle cx="546" cy="316" r="1.3" fill="#EAF1FB"/><circle cx="546" cy="362" r="1.3" fill="#EAF1FB"/><circle cx="546" cy="408" r="1.3" fill="#EAF1FB"/><circle cx="546" cy="454" r="1.3" fill="#EAF1FB"/><circle cx="592" cy="40" r="1.3" fill="#EAF1FB"/><circle cx="592" cy="86" r="1.3" fill="#EAF1FB"/><circle cx="592" cy="132" r="1.3" fill="#EAF1FB"/><circle cx="592" cy="178" r="1.3" fill="#EAF1FB"/><circle cx="592" cy="224" r="1.3" fill="#EAF1FB"/><circle cx="592" cy="270" r="1.3" fill="#EAF1FB"/><circle cx="592" cy="316" r="1.3" fill="#EAF1FB"/><circle cx="592" cy="362" r="1.3" fill="#EAF1FB"/><circle cx="592" cy="408" r="1.3" fill="#EAF1FB"/><circle cx="592" cy="454" r="1.3" fill="#EAF1FB"/><circle cx="638" cy="40" r="1.3" fill="#EAF1FB"/><circle cx="638" cy="86" r="1.3" fill="#EAF1FB"/><circle cx="638" cy="132" r="1.3" fill="#EAF1FB"/><circle cx="638" cy="178" r="1.3" fill="#EAF1FB"/><circle cx="638" cy="224" r="1.3" fill="#EAF1FB"/><circle cx="638" cy="270" r="1.3" fill="#EAF1FB"/><circle cx="638" cy="316" r="1.3" fill="#EAF1FB"/><circle cx="638" cy="362" r="1.3" fill="#EAF1FB"/><circle cx="638" cy="408" r="1.3" fill="#EAF1FB"/><circle cx="638" cy="454" r="1.3" fill="#EAF1FB"/><circle cx="684" cy="40" r="1.3" fill="#EAF1FB"/><circle cx="684" cy="86" r="1.3" fill="#EAF1FB"/><circle cx="684" cy="132" r="1.3" fill="#EAF1FB"/><circle cx="684" cy="178" r="1.3" fill="#EAF1FB"/><circle cx="684" cy="224" r="1.3" fill="#EAF1FB"/><circle cx="684" cy="270" r="1.3" fill="#EAF1FB"/><circle cx="684" cy="316" r="1.3" fill="#EAF1FB"/><circle cx="684" cy="362" r="1.3" fill="#EAF1FB"/><circle cx="684" cy="408" r="1.3" fill="#EAF1FB"/><circle cx="684" cy="454" r="1.3" fill="#EAF1FB"/><circle cx="730" cy="40" r="1.3" fill="#EAF1FB"/><circle cx="730" cy="86" r="1.3" fill="#EAF1FB"/><circle cx="730" cy="132" r="1.3" fill="#EAF1FB"/><circle cx="730" cy="178" r="1.3" fill="#EAF1FB"/><circle cx="730" cy="224" r="1.3" fill="#EAF1FB"/><circle cx="730" cy="270" r="1.3" fill="#EAF1FB"/><circle cx="730" cy="316" r="1.3" fill="#EAF1FB"/><circle cx="730" cy="362" r="1.3" fill="#EAF1FB"/><circle cx="730" cy="408" r="1.3" fill="#EAF1FB"/><circle cx="730" cy="454" r="1.3" fill="#EAF1FB"/><circle cx="776" cy="40" r="1.3" fill="#EAF1FB"/><circle cx="776" cy="86" r="1.3" fill="#EAF1FB"/><circle cx="776" cy="132" r="1.3" fill="#EAF1FB"/><circle cx="776" cy="178" r="1.3" fill="#EAF1FB"/><circle cx="776" cy="224" r="1.3" fill="#EAF1FB"/><circle cx="776" cy="270" r="1.3" fill="#EAF1FB"/><circle cx="776" cy="316" r="1.3" fill="#EAF1FB"/><circle cx="776" cy="362" r="1.3" fill="#EAF1FB"/><circle cx="776" cy="408" r="1.3" fill="#EAF1FB"/><circle cx="776" cy="454" r="1.3" fill="#EAF1FB"/><circle cx="822" cy="40" r="1.3" fill="#EAF1FB"/><circle cx="822" cy="86" r="1.3" fill="#EAF1FB"/><circle cx="822" cy="132" r="1.3" fill="#EAF1FB"/><circle cx="822" cy="178" r="1.3" fill="#EAF1FB"/><circle cx="822" cy="224" r="1.3" fill="#EAF1FB"/><circle cx="822" cy="270" r="1.3" fill="#EAF1FB"/><circle cx="822" cy="316" r="1.3" fill="#EAF1FB"/><circle cx="822" cy="362" r="1.3" fill="#EAF1FB"/><circle cx="822" cy="408" r="1.3" fill="#EAF1FB"/><circle cx="822" cy="454" r="1.3" fill="#EAF1FB"/><circle cx="868" cy="40" r="1.3" fill="#EAF1FB"/><circle cx="868" cy="86" r="1.3" fill="#EAF1FB"/><circle cx="868" cy="132" r="1.3" fill="#EAF1FB"/><circle cx="868" cy="178" r="1.3" fill="#EAF1FB"/><circle cx="868" cy="224" r="1.3" fill="#EAF1FB"/><circle cx="868" cy="270" r="1.3" fill="#EAF1FB"/><circle cx="868" cy="316" r="1.3" fill="#EAF1FB"/><circle cx="868" cy="362" r="1.3" fill="#EAF1FB"/><circle cx="868" cy="408" r="1.3" fill="#EAF1FB"/><circle cx="868" cy="454" r="1.3" fill="#EAF1FB"/><circle cx="914" cy="40" r="1.3" fill="#EAF1FB"/><circle cx="914" cy="86" r="1.3" fill="#EAF1FB"/><circle cx="914" cy="132" r="1.3" fill="#EAF1FB"/><circle cx="914" cy="178" r="1.3" fill="#EAF1FB"/><circle cx="914" cy="224" r="1.3" fill="#EAF1FB"/><circle cx="914" cy="270" r="1.3" fill="#EAF1FB"/><circle cx="914" cy="316" r="1.3" fill="#EAF1FB"/><circle cx="914" cy="362" r="1.3" fill="#EAF1FB"/><circle cx="914" cy="408" r="1.3" fill="#EAF1FB"/><circle cx="914" cy="454" r="1.3" fill="#EAF1FB"/><circle cx="960" cy="40" r="1.3" fill="#EAF1FB"/><circle cx="960" cy="86" r="1.3" fill="#EAF1FB"/><circle cx="960" cy="132" r="1.3" fill="#EAF1FB"/><circle cx="960" cy="178" r="1.3" fill="#EAF1FB"/><circle cx="960" cy="224" r="1.3" fill="#EAF1FB"/><circle cx="960" cy="270" r="1.3" fill="#EAF1FB"/><circle cx="960" cy="316" r="1.3" fill="#EAF1FB"/><circle cx="960" cy="362" r="1.3" fill="#EAF1FB"/><circle cx="960" cy="408" r="1.3" fill="#EAF1FB"/><circle cx="960" cy="454" r="1.3" fill="#EAF1FB"/><circle cx="1006" cy="40" r="1.3" fill="#EAF1FB"/><circle cx="1006" cy="86" r="1.3" fill="#EAF1FB"/><circle cx="1006" cy="132" r="1.3" fill="#EAF1FB"/><circle cx="1006" cy="178" r="1.3" fill="#EAF1FB"/><circle cx="1006" cy="224" r="1.3" fill="#EAF1FB"/><circle cx="1006" cy="270" r="1.3" fill="#EAF1FB"/><circle cx="1006" cy="316" r="1.3" fill="#EAF1FB"/><circle cx="1006" cy="362" r="1.3" fill="#EAF1FB"/><circle cx="1006" cy="408" r="1.3" fill="#EAF1FB"/><circle cx="1006" cy="454" r="1.3" fill="#EAF1FB"/><circle cx="1052" cy="40" r="1.3" fill="#EAF1FB"/><circle cx="1052" cy="86" r="1.3" fill="#EAF1FB"/><circle cx="1052" cy="132" r="1.3" fill="#EAF1FB"/><circle cx="1052" cy="178" r="1.3" fill="#EAF1FB"/><circle cx="1052" cy="224" r="1.3" fill="#EAF1FB"/><circle cx="1052" cy="270" r="1.3" fill="#EAF1FB"/><circle cx="1052" cy="316" r="1.3" fill="#EAF1FB"/><circle cx="1052" cy="362" r="1.3" fill="#EAF1FB"/><circle cx="1052" cy="408" r="1.3" fill="#EAF1FB"/><circle cx="1052" cy="454" r="1.3" fill="#EAF1FB"/><circle cx="1098" cy="40" r="1.3" fill="#EAF1FB"/><circle cx="1098" cy="86" r="1.3" fill="#EAF1FB"/><circle cx="1098" cy="132" r="1.3" fill="#EAF1FB"/><circle cx="1098" cy="178" r="1.3" fill="#EAF1FB"/><circle cx="1098" cy="224" r="1.3" fill="#EAF1FB"/><circle cx="1098" cy="270" r="1.3" fill="#EAF1FB"/><circle cx="1098" cy="316" r="1.3" fill="#EAF1FB"/><circle cx="1098" cy="362" r="1.3" fill="#EAF1FB"/><circle cx="1098" cy="408" r="1.3" fill="#EAF1FB"/><circle cx="1098" cy="454" r="1.3" fill="#EAF1FB"/><circle cx="1144" cy="40" r="1.3" fill="#EAF1FB"/><circle cx="1144" cy="86" r="1.3" fill="#EAF1FB"/><circle cx="1144" cy="132" r="1.3" fill="#EAF1FB"/><circle cx="1144" cy="178" r="1.3" fill="#EAF1FB"/><circle cx="1144" cy="224" r="1.3" fill="#EAF1FB"/><circle cx="1144" cy="270" r="1.3" fill="#EAF1FB"/><circle cx="1144" cy="316" r="1.3" fill="#EAF1FB"/><circle cx="1144" cy="362" r="1.3" fill="#EAF1FB"/><circle cx="1144" cy="408" r="1.3" fill="#EAF1FB"/><circle cx="1144" cy="454" r="1.3" fill="#EAF1FB"/><circle cx="1190" cy="40" r="1.3" fill="#EAF1FB"/><circle cx="1190" cy="86" r="1.3" fill="#EAF1FB"/><circle cx="1190" cy="132" r="1.3" fill="#EAF1FB"/><circle cx="1190" cy="178" r="1.3" fill="#EAF1FB"/><circle cx="1190" cy="224" r="1.3" fill="#EAF1FB"/><circle cx="1190" cy="270" r="1.3" fill="#EAF1FB"/><circle cx="1190" cy="316" r="1.3" fill="#EAF1FB"/><circle cx="1190" cy="362" r="1.3" fill="#EAF1FB"/><circle cx="1190" cy="408" r="1.3" fill="#EAF1FB"/><circle cx="1190" cy="454" r="1.3" fill="#EAF1FB"/><circle cx="1236" cy="40" r="1.3" fill="#EAF1FB"/><circle cx="1236" cy="86" r="1.3" fill="#EAF1FB"/><circle cx="1236" cy="132" r="1.3" fill="#EAF1FB"/><circle cx="1236" cy="178" r="1.3" fill="#EAF1FB"/><circle cx="1236" cy="224" r="1.3" fill="#EAF1FB"/><circle cx="1236" cy="270" r="1.3" fill="#EAF1FB"/><circle cx="1236" cy="316" r="1.3" fill="#EAF1FB"/><circle cx="1236" cy="362" r="1.3" fill="#EAF1FB"/><circle cx="1236" cy="408" r="1.3" fill="#EAF1FB"/><circle cx="1236" cy="454" r="1.3" fill="#EAF1FB"/><circle cx="1282" cy="40" r="1.3" fill="#EAF1FB"/><circle cx="1282" cy="86" r="1.3" fill="#EAF1FB"/><circle cx="1282" cy="132" r="1.3" fill="#EAF1FB"/><circle cx="1282" cy="178" r="1.3" fill="#EAF1FB"/><circle cx="1282" cy="224" r="1.3" fill="#EAF1FB"/><circle cx="1282" cy="270" r="1.3" fill="#EAF1FB"/><circle cx="1282" cy="316" r="1.3" fill="#EAF1FB"/><circle cx="1282" cy="362" r="1.3" fill="#EAF1FB"/><circle cx="1282" cy="408" r="1.3" fill="#EAF1FB"/><circle cx="1282" cy="454" r="1.3" fill="#EAF1FB"/><circle cx="1328" cy="40" r="1.3" fill="#EAF1FB"/><circle cx="1328" cy="86" r="1.3" fill="#EAF1FB"/><circle cx="1328" cy="132" r="1.3" fill="#EAF1FB"/><circle cx="1328" cy="178" r="1.3" fill="#EAF1FB"/><circle cx="1328" cy="224" r="1.3" fill="#EAF1FB"/><circle cx="1328" cy="270" r="1.3" fill="#EAF1FB"/><circle cx="1328" cy="316" r="1.3" fill="#EAF1FB"/><circle cx="1328" cy="362" r="1.3" fill="#EAF1FB"/><circle cx="1328" cy="408" r="1.3" fill="#EAF1FB"/><circle cx="1328" cy="454" r="1.3" fill="#EAF1FB"/><circle cx="1374" cy="40" r="1.3" fill="#EAF1FB"/><circle cx="1374" cy="86" r="1.3" fill="#EAF1FB"/><circle cx="1374" cy="132" r="1.3" fill="#EAF1FB"/><circle cx="1374" cy="178" r="1.3" fill="#EAF1FB"/><circle cx="1374" cy="224" r="1.3" fill="#EAF1FB"/><circle cx="1374" cy="270" r="1.3" fill="#EAF1FB"/><circle cx="1374" cy="316" r="1.3" fill="#EAF1FB"/><circle cx="1374" cy="362" r="1.3" fill="#EAF1FB"/><circle cx="1374" cy="408" r="1.3" fill="#EAF1FB"/><circle cx="1374" cy="454" r="1.3" fill="#EAF1FB"/><circle cx="1420" cy="40" r="1.3" fill="#EAF1FB"/><circle cx="1420" cy="86" r="1.3" fill="#EAF1FB"/><circle cx="1420" cy="132" r="1.3" fill="#EAF1FB"/><circle cx="1420" cy="178" r="1.3" fill="#EAF1FB"/><circle cx="1420" cy="224" r="1.3" fill="#EAF1FB"/><circle cx="1420" cy="270" r="1.3" fill="#EAF1FB"/><circle cx="1420" cy="316" r="1.3" fill="#EAF1FB"/><circle cx="1420" cy="362" r="1.3" fill="#EAF1FB"/><circle cx="1420" cy="408" r="1.3" fill="#EAF1FB"/><circle cx="1420" cy="454" r="1.3" fill="#EAF1FB"/><circle cx="1466" cy="40" r="1.3" fill="#EAF1FB"/><circle cx="1466" cy="86" r="1.3" fill="#EAF1FB"/><circle cx="1466" cy="132" r="1.3" fill="#EAF1FB"/><circle cx="1466" cy="178" r="1.3" fill="#EAF1FB"/><circle cx="1466" cy="224" r="1.3" fill="#EAF1FB"/><circle cx="1466" cy="270" r="1.3" fill="#EAF1FB"/><circle cx="1466" cy="316" r="1.3" fill="#EAF1FB"/><circle cx="1466" cy="362" r="1.3" fill="#EAF1FB"/><circle cx="1466" cy="408" r="1.3" fill="#EAF1FB"/><circle cx="1466" cy="454" r="1.3" fill="#EAF1FB"/><circle cx="1512" cy="40" r="1.3" fill="#EAF1FB"/><circle cx="1512" cy="86" r="1.3" fill="#EAF1FB"/><circle cx="1512" cy="132" r="1.3" fill="#EAF1FB"/><circle cx="1512" cy="178" r="1.3" fill="#EAF1FB"/><circle cx="1512" cy="224" r="1.3" fill="#EAF1FB"/><circle cx="1512" cy="270" r="1.3" fill="#EAF1FB"/><circle cx="1512" cy="316" r="1.3" fill="#EAF1FB"/><circle cx="1512" cy="362" r="1.3" fill="#EAF1FB"/><circle cx="1512" cy="408" r="1.3" fill="#EAF1FB"/><circle cx="1512" cy="454" r="1.3" fill="#EAF1FB"/><circle cx="1558" cy="40" r="1.3" fill="#EAF1FB"/><circle cx="1558" cy="86" r="1.3" fill="#EAF1FB"/><circle cx="1558" cy="132" r="1.3" fill="#EAF1FB"/><circle cx="1558" cy="178" r="1.3" fill="#EAF1FB"/><circle cx="1558" cy="224" r="1.3" fill="#EAF1FB"/><circle cx="1558" cy="270" r="1.3" fill="#EAF1FB"/><circle cx="1558" cy="316" r="1.3" fill="#EAF1FB"/><circle cx="1558" cy="362" r="1.3" fill="#EAF1FB"/><circle cx="1558" cy="408" r="1.3" fill="#EAF1FB"/><circle cx="1558" cy="454" r="1.3" fill="#EAF1FB"/></g>
<g><path d="M970 230 q15 26 30 0 q15 26 30 0 q15 26 30 0 q15 26 30 0 q15 26 30 0 q15 26 30 0 q15 26 30 0 q15 26 30 0 q15 26 30 0 q15 26 30 0 q15 26 30 0 q15 26 30 0 q15 26 30 0 q15 26 30 0 q15 26 30 0" fill="none" stroke="#2DD4BF" stroke-opacity="0.5" stroke-width="3" transform="translate(0 -39)"/><path d="M970 230 q15 -32 30 0 q15 -32 30 0 q15 -32 30 0 q15 -32 30 0 q15 -32 30 0 q15 -32 30 0 q15 -32 30 0 q15 -32 30 0 q15 -32 30 0 q15 -32 30 0 q15 -32 30 0 q15 -32 30 0 q15 -32 30 0 q15 -32 30 0 q15 -32 30 0" fill="none" stroke="#2DD4BF" stroke-opacity="0.41000000000000003" stroke-width="2.6" transform="translate(0 -13)"/><path d="M970 230 q15 38 30 0 q15 38 30 0 q15 38 30 0 q15 38 30 0 q15 38 30 0 q15 38 30 0 q15 38 30 0 q15 38 30 0 q15 38 30 0 q15 38 30 0 q15 38 30 0 q15 38 30 0 q15 38 30 0 q15 38 30 0 q15 38 30 0" fill="none" stroke="#2DD4BF" stroke-opacity="0.32" stroke-width="2.2" transform="translate(0 13)"/><path d="M970 230 q15 -44 30 0 q15 -44 30 0 q15 -44 30 0 q15 -44 30 0 q15 -44 30 0 q15 -44 30 0 q15 -44 30 0 q15 -44 30 0 q15 -44 30 0 q15 -44 30 0 q15 -44 30 0 q15 -44 30 0 q15 -44 30 0 q15 -44 30 0 q15 -44 30 0" fill="none" stroke="#2DD4BF" stroke-opacity="0.22999999999999998" stroke-width="1.7999999999999998" transform="translate(0 39)"/></g>
<rect x="0" y="0" width="1600" height="3" fill="url(#edge88)"/>
</svg>