<?xml version="1.0" encoding="UTF-8"?>
<svg xmlns="http://www.w3.org/2000/svg" viewBox="0 0 1600 900" role="img" aria-label="CrowMark bid narrative builder mockup with TOMs measure picker on the left and AI-drafted narrative on the right">
  <title>CrowMark bid narrative builder</title>
  <desc>Split layout with PPN 002 mission selector and TOMs measure picker on the left, AI-generated narrative streaming on the right.</desc>
  <defs>
    <linearGradient id="bgG4" x1="0" y1="0" x2="0" y2="1">
      <stop offset="0" stop-color="#040E1A"/>
      <stop offset="1" stop-color="#061525"/>
    </linearGradient>
    <linearGradient id="aiGlow" x1="0" y1="0" x2="1" y2="0">
      <stop offset="0" stop-color="#A78BFA" stop-opacity="0.4"/>
      <stop offset="1" stop-color="#0CC9A8" stop-opacity="0.4"/>
    </linearGradient>
  </defs>
  <style>
    .f { font-family: 'Plus Jakarta Sans', system-ui, sans-serif; }
    .b { font-family: 'Inter', system-ui, sans-serif; }
    .m { font-family: 'JetBrains Mono', ui-monospace, monospace; }
  </style>

  <rect width="1600" height="900" fill="url(#bgG4)"/>

  <!-- Window chrome -->
  <rect x="0" y="0" width="1600" height="44" fill="#0A1F3A"/>
  <circle cx="22" cy="22" r="6" fill="#EF4444"/>
  <circle cx="44" cy="22" r="6" fill="#F59E0B"/>
  <circle cx="66" cy="22" r="6" fill="#0CC9A8"/>
  <rect x="600" y="11" width="400" height="22" rx="11" fill="#040E1A"/>
  <text x="800" y="26" text-anchor="middle" class="b" font-size="11" fill="#8A9DB8">app.crowagent.ai/crowmark/contracts/draft</text>

  <!-- Top bar -->
  <rect x="0" y="44" width="1600" height="64" fill="#0A1F3A"/>
  <line x1="0" y1="108" x2="1600" y2="108" stroke="#0D2847"/>
  <circle cx="44" cy="76" r="14" fill="#A78BFA"/>
  <text x="44" y="81" text-anchor="middle" class="f" font-size="14" font-weight="700" fill="#040E1A">M</text>
  <text x="68" y="81" class="f" font-size="17" font-weight="700" fill="#E8F0FA">CrowMark</text>
  <text x="160" y="81" class="b" font-size="13" fill="#8A9DB8">PPN 002 social-value workspace</text>

  <!-- Page header -->
  <text x="68" y="148" class="b" font-size="11" font-weight="600" fill="#8A9DB8">CONTRACT DRAFT · NCS-2026-471</text>
  <text x="68" y="180" class="f" font-size="24" font-weight="700" fill="#E8F0FA">School catering services · West Midlands</text>
  <text x="68" y="206" class="b" font-size="13" fill="#8A9DB8">Value £2.4M · Duration 36 mo · 10% social-value weighting required</text>

  <!-- Save / Export controls -->
  <rect x="1380" y="160" width="100" height="34" rx="17" fill="#0D2847"/>
  <text x="1430" y="181" text-anchor="middle" class="b" font-size="12" fill="#E8F0FA">Save draft</text>
  <rect x="1490" y="160" width="100" height="34" rx="17" fill="#A78BFA"/>
  <text x="1540" y="181" text-anchor="middle" class="b" font-size="12" font-weight="700" fill="#040E1A">Export PDF</text>

  <!-- LEFT: TOMs picker -->
  <rect x="68" y="240" width="640" height="624" rx="12" fill="#0A1F3A" stroke="#0D2847"/>

  <text x="92" y="276" class="f" font-size="14" font-weight="700" fill="#E8F0FA">PPN 002 missions</text>
  <text x="92" y="296" class="b" font-size="11" fill="#8A9DB8">Auto-mapped from contract profile</text>

  <!-- Mission chip 1 (active) -->
  <rect x="92" y="312" width="280" height="46" rx="8" fill="#A78BFA" fill-opacity="0.16" stroke="#A78BFA"/>
  <rect x="100" y="324" width="22" height="22" rx="4" fill="#A78BFA"/>
  <text x="111" y="340" text-anchor="middle" class="f" font-size="11" font-weight="700" fill="#040E1A">M1</text>
  <text x="132" y="332" class="b" font-size="12" font-weight="600" fill="#E8F0FA">Mission 1 · Wellbeing</text>
  <text x="132" y="348" class="b" font-size="10" fill="#8A9DB8">Health and inclusive employment</text>

  <!-- Mission chip 2 -->
  <rect x="384" y="312" width="280" height="46" rx="8" fill="#0D2847"/>
  <rect x="392" y="324" width="22" height="22" rx="4" fill="#5BC8FF"/>
  <text x="403" y="340" text-anchor="middle" class="f" font-size="11" font-weight="700" fill="#040E1A">M3</text>
  <text x="424" y="332" class="b" font-size="12" font-weight="600" fill="#E8F0FA">Mission 3 · Equal opportunity</text>
  <text x="424" y="348" class="b" font-size="10" fill="#8A9DB8">SME / VCSE access</text>

  <!-- Divider -->
  <text x="92" y="396" class="f" font-size="14" font-weight="700" fill="#E8F0FA">TOMs measures · selected (3)</text>
  <text x="592" y="396" text-anchor="end" class="b" font-size="11" fill="#0CC9A8">Score 11.2%</text>

  <!-- Measure 1 -->
  <rect x="92" y="412" width="572" height="74" rx="8" fill="#0D2847"/>
  <rect x="92" y="412" width="3" height="74" fill="#A78BFA"/>
  <text x="108" y="434" class="b" font-size="11" font-weight="600" fill="#A78BFA">NT24 · Wellbeing</text>
  <text x="108" y="454" class="b" font-size="13" font-weight="600" fill="#E8F0FA">Hours of training delivered to local SMEs</text>
  <text x="108" y="474" class="b" font-size="11" fill="#8A9DB8">Oxford SVB proxy: £24.18 · Selected target 480 hr · Δ £11,606</text>
  <rect x="600" y="436" width="50" height="22" rx="11" fill="#0CC9A8" fill-opacity="0.18"/>
  <path d="M615 446 L620 451 L630 442" stroke="#0CC9A8" stroke-width="1.8" fill="none" stroke-linecap="round" stroke-linejoin="round"/>
  <text x="640" y="450" class="b" font-size="10" font-weight="600" fill="#0CC9A8">In</text>

  <!-- Measure 2 -->
  <rect x="92" y="498" width="572" height="74" rx="8" fill="#0D2847"/>
  <rect x="92" y="498" width="3" height="74" fill="#A78BFA"/>
  <text x="108" y="520" class="b" font-size="11" font-weight="600" fill="#A78BFA">NT81 · Wellbeing</text>
  <text x="108" y="540" class="b" font-size="13" font-weight="600" fill="#E8F0FA">Apprenticeships completed (level 3+)</text>
  <text x="108" y="560" class="b" font-size="11" fill="#8A9DB8">Oxford SVB proxy: £18,453 · Selected target 4 · Δ £73,812</text>
  <rect x="600" y="522" width="50" height="22" rx="11" fill="#0CC9A8" fill-opacity="0.18"/>
  <path d="M615 532 L620 537 L630 528" stroke="#0CC9A8" stroke-width="1.8" fill="none" stroke-linecap="round" stroke-linejoin="round"/>
  <text x="640" y="536" class="b" font-size="10" font-weight="600" fill="#0CC9A8">In</text>

  <!-- Measure 3 -->
  <rect x="92" y="584" width="572" height="74" rx="8" fill="#0D2847"/>
  <rect x="92" y="584" width="3" height="74" fill="#5BC8FF"/>
  <text x="108" y="606" class="b" font-size="11" font-weight="600" fill="#5BC8FF">NT94 · Equal opportunity</text>
  <text x="108" y="626" class="b" font-size="13" font-weight="600" fill="#E8F0FA">% of supply chain spend with VCSE / SME</text>
  <text x="108" y="646" class="b" font-size="11" fill="#8A9DB8">Oxford SVB proxy: contract-based · Target 30% · Δ £41,200</text>
  <rect x="600" y="608" width="50" height="22" rx="11" fill="#0CC9A8" fill-opacity="0.18"/>
  <path d="M615 618 L620 623 L630 614" stroke="#0CC9A8" stroke-width="1.8" fill="none" stroke-linecap="round" stroke-linejoin="round"/>
  <text x="640" y="622" class="b" font-size="10" font-weight="600" fill="#0CC9A8">In</text>

  <!-- Add measure -->
  <rect x="92" y="678" width="572" height="46" rx="8" fill="#040E1A" stroke="#A78BFA" stroke-dasharray="4 4"/>
  <line x1="368" y1="697" x2="380" y2="697" stroke="#A78BFA" stroke-width="2" stroke-linecap="round"/>
  <line x1="374" y1="691" x2="374" y2="703" stroke="#A78BFA" stroke-width="2" stroke-linecap="round"/>
  <text x="386" y="702" class="b" font-size="12" font-weight="600" fill="#A78BFA">Add measure from library (387 available)</text>

  <!-- Generate narrative button -->
  <rect x="92" y="752" width="572" height="48" rx="8" fill="url(#aiGlow)"/>
  <rect x="92" y="752" width="572" height="48" rx="8" fill="#A78BFA" fill-opacity="0.4"/>
  <path d="M324 770 L320 776 L324 776 L320 786 L334 778 L330 778 L334 770 Z" fill="#E8F0FA"/>
  <text x="345" y="781" class="b" font-size="13" font-weight="700" fill="#E8F0FA">Generate narrative with AI</text>

  <text x="92" y="828" class="b" font-size="10" fill="#8A9DB8">Powered by Google Gemini · server-side · Oxford SVB 2023–24 proxy values</text>

  <!-- RIGHT: Narrative output -->
  <rect x="728" y="240" width="804" height="624" rx="12" fill="#0A1F3A" stroke="#0D2847"/>

  <!-- Output header -->
  <text x="752" y="276" class="f" font-size="14" font-weight="700" fill="#E8F0FA">Bid narrative · Section 4.2 Social Value</text>
  <rect x="1408" y="258" width="100" height="26" rx="13" fill="#0CC9A8" fill-opacity="0.16"/>
  <circle cx="1424" cy="271" r="3" fill="#0CC9A8"/>
  <text x="1432" y="275" class="b" font-size="11" font-weight="600" fill="#0CC9A8">Live drafting</text>

  <!-- Stylised typewriter narrative -->
  <text x="752" y="320" class="b" font-size="12" font-weight="700" fill="#E8F0FA">Our PPN 002 commitment</text>

  <rect x="752" y="336" width="756" height="9" rx="2" fill="#B8CCE0" opacity="0.85"/>
  <rect x="752" y="352" width="720" height="9" rx="2" fill="#B8CCE0" opacity="0.85"/>
  <rect x="752" y="368" width="688" height="9" rx="2" fill="#B8CCE0" opacity="0.85"/>
  <rect x="752" y="384" width="640" height="9" rx="2" fill="#B8CCE0" opacity="0.85"/>

  <!-- Highlighted callout (TOMs measure citation) -->
  <rect x="752" y="404" width="756" height="58" rx="8" fill="#A78BFA" fill-opacity="0.10" stroke="#A78BFA" stroke-opacity="0.4"/>
  <text x="772" y="426" class="b" font-size="11" font-weight="700" fill="#A78BFA">NT24 · 480 hours of SME training · £11,606 SVB proxy</text>
  <rect x="772" y="436" width="540" height="9" rx="2" fill="#E8F0FA" opacity="0.7"/>
  <rect x="772" y="450" width="600" height="9" rx="2" fill="#E8F0FA" opacity="0.7"/>

  <text x="752" y="492" class="b" font-size="12" font-weight="700" fill="#E8F0FA">Apprenticeships and equal opportunity</text>
  <rect x="752" y="508" width="756" height="9" rx="2" fill="#B8CCE0" opacity="0.85"/>
  <rect x="752" y="524" width="730" height="9" rx="2" fill="#B8CCE0" opacity="0.85"/>
  <rect x="752" y="540" width="688" height="9" rx="2" fill="#B8CCE0" opacity="0.85"/>

  <rect x="752" y="558" width="756" height="58" rx="8" fill="#A78BFA" fill-opacity="0.10" stroke="#A78BFA" stroke-opacity="0.4"/>
  <text x="772" y="580" class="b" font-size="11" font-weight="700" fill="#A78BFA">NT81 · 4 level-3 apprenticeships · £73,812 SVB proxy</text>
  <rect x="772" y="590" width="540" height="9" rx="2" fill="#E8F0FA" opacity="0.7"/>
  <rect x="772" y="604" width="600" height="9" rx="2" fill="#E8F0FA" opacity="0.7"/>

  <text x="752" y="646" class="b" font-size="12" font-weight="700" fill="#E8F0FA">Local supply chain</text>
  <rect x="752" y="662" width="756" height="9" rx="2" fill="#B8CCE0" opacity="0.85"/>
  <rect x="752" y="678" width="700" height="9" rx="2" fill="#B8CCE0" opacity="0.85"/>
  <rect x="752" y="694" width="668" height="9" rx="2" fill="#B8CCE0" opacity="0.85"/>
  <rect x="752" y="710" width="430" height="9" rx="2" fill="#B8CCE0" opacity="0.6"/>
  <!-- Cursor -->
  <rect x="1188" y="704" width="10" height="14" fill="#0CC9A8">
    <animate attributeName="opacity" values="1;0;1" dur="1s" repeatCount="indefinite"/>
  </rect>

  <!-- Footer -->
  <line x1="752" y1="780" x2="1508" y2="780" stroke="#0D2847"/>
  <text x="752" y="808" class="b" font-size="11" fill="#8A9DB8">432 words · Oxford SVB proxy total: £126,618 · Threshold met</text>
  <rect x="1340" y="792" width="80" height="32" rx="16" fill="#0D2847"/>
  <text x="1380" y="813" text-anchor="middle" class="b" font-size="11" fill="#E8F0FA">Re-draft</text>
  <rect x="1428" y="792" width="80" height="32" rx="16" fill="#0CC9A8"/>
  <text x="1468" y="813" text-anchor="middle" class="b" font-size="11" font-weight="700" fill="#040E1A">Approve</text>
</svg>
