<?xml version="1.0" encoding="UTF-8"?>
<svg xmlns="http://www.w3.org/2000/svg" viewBox="0 0 1600 900" role="img" aria-label="CrowCash 12-week cash-flow forecast mockup with stacked bar chart, ageing buckets and DSO trend">
  <title>CrowCash cash-flow forecast</title>
  <desc>12-week cash-flow forecast with expected receipts, ageing buckets, DSO trend and confidence band.</desc>
  <defs>
    <linearGradient id="bgCF" x1="0" y1="0" x2="0" y2="1"><stop offset="0" stop-color="#040E1A"/><stop offset="1" stop-color="#061525"/></linearGradient>
    <linearGradient id="cfBar" x1="0" y1="1" x2="0" y2="0"><stop offset="0" stop-color="#0CC9A8" stop-opacity="0.25"/><stop offset="1" stop-color="#0CC9A8" stop-opacity="1"/></linearGradient>
  </defs>
  <style>
    .f { font-family: 'Plus Jakarta Sans', system-ui, sans-serif; }
    .b { font-family: 'Inter', system-ui, sans-serif; }
    .m { font-family: 'JetBrains Mono', ui-monospace, monospace; }
  </style>
  <rect width="1600" height="900" fill="url(#bgCF)"/>
  <rect x="0" y="0" width="1600" height="44" fill="#0A1F3A"/>
  <circle cx="22" cy="22" r="6" fill="#EF4444"/><circle cx="44" cy="22" r="6" fill="#F59E0B"/><circle cx="66" cy="22" r="6" fill="#0CC9A8"/>
  <rect x="600" y="11" width="400" height="22" rx="11" fill="#040E1A"/>
  <text x="800" y="26" text-anchor="middle" class="b" font-size="11" fill="#8A9DB8">app.crowagent.ai/crowcash/cashflow</text>
  <rect x="0" y="44" width="1600" height="64" fill="#0A1F3A"/>
  <line x1="0" y1="108" x2="1600" y2="108" stroke="#0D2847"/>
  <circle cx="44" cy="76" r="14" fill="#0CC9A8"/>
  <text x="44" y="82" text-anchor="middle" class="f" font-size="14" font-weight="700" fill="#040E1A">£</text>
  <text x="68" y="81" class="f" font-size="17" font-weight="700" fill="#E8F0FA">CrowCash · Cashflow forecast</text>

  <text x="68" y="160" class="f" font-size="26" font-weight="700" fill="#E8F0FA">12-week cashflow forecast</text>
  <text x="68" y="184" class="b" font-size="13" fill="#8A9DB8">Expected receipts · ageing-buckets · scenario sensitivity</text>

  <!-- KPI strip -->
  <rect x="68" y="216" width="240" height="80" rx="10" fill="#0A1F3A" stroke="#0D2847"/>
  <text x="84" y="240" class="b" font-size="11" font-weight="600" fill="#8A9DB8">EXPECTED 12 W</text>
  <text x="84" y="274" class="f" font-size="24" font-weight="700" fill="#0CC9A8">£296,400</text>

  <rect x="322" y="216" width="240" height="80" rx="10" fill="#0A1F3A" stroke="#0D2847"/>
  <text x="338" y="240" class="b" font-size="11" font-weight="600" fill="#8A9DB8">DSO TREND</text>
  <text x="338" y="274" class="f" font-size="24" font-weight="700" fill="#E8F0FA">62 → 48 d</text>

  <rect x="576" y="216" width="240" height="80" rx="10" fill="#0A1F3A" stroke="#0D2847"/>
  <text x="592" y="240" class="b" font-size="11" font-weight="600" fill="#8A9DB8">CONFIDENCE</text>
  <text x="592" y="274" class="f" font-size="24" font-weight="700" fill="#E8F0FA">86%</text>

  <rect x="830" y="216" width="240" height="80" rx="10" fill="#0A1F3A" stroke="#0D2847"/>
  <text x="846" y="240" class="b" font-size="11" font-weight="600" fill="#8A9DB8">AT RISK</text>
  <text x="846" y="274" class="f" font-size="24" font-weight="700" fill="#F59E0B">£42,000</text>

  <rect x="1084" y="216" width="476" height="80" rx="10" fill="#0CC9A8" fill-opacity="0.12" stroke="#0CC9A8"/>
  <text x="1100" y="240" class="b" font-size="11" font-weight="600" fill="#0CC9A8">SCENARIO · BASELINE + AI CHASE</text>
  <text x="1100" y="266" class="b" font-size="14" font-weight="600" fill="#E8F0FA">+£86,000 vs do-nothing scenario</text>
  <text x="1100" y="284" class="b" font-size="11" fill="#B8CCE0">DSO drops 14 d in 8 weeks</text>

  <!-- Chart -->
  <rect x="68" y="320" width="1100" height="520" rx="14" fill="#0A1F3A" stroke="#0D2847"/>
  <text x="92" y="356" class="f" font-size="16" font-weight="700" fill="#E8F0FA">Weekly receipts forecast</text>

  <!-- Legend -->
  <rect x="900" y="346" width="14" height="14" rx="2" fill="#0CC9A8"/>
  <text x="922" y="358" class="b" font-size="11" fill="#B8CCE0">Confirmed</text>
  <rect x="1004" y="346" width="14" height="14" rx="2" fill="#5BC8FF"/>
  <text x="1026" y="358" class="b" font-size="11" fill="#B8CCE0">High prob</text>
  <rect x="1108" y="346" width="14" height="14" rx="2" fill="#F59E0B"/>
  <text x="1130" y="358" class="b" font-size="11" fill="#B8CCE0">At risk</text>

  <!-- Y-axis -->
  <line x1="120" y1="400" x2="120" y2="780" stroke="#0D2847"/>
  <text x="112" y="406" text-anchor="end" class="m" font-size="10" fill="#8A9DB8">£40k</text>
  <text x="112" y="500" text-anchor="end" class="m" font-size="10" fill="#8A9DB8">£30k</text>
  <text x="112" y="594" text-anchor="end" class="m" font-size="10" fill="#8A9DB8">£20k</text>
  <text x="112" y="688" text-anchor="end" class="m" font-size="10" fill="#8A9DB8">£10k</text>
  <text x="112" y="782" text-anchor="end" class="m" font-size="10" fill="#8A9DB8">£0</text>
  <line x1="120" y1="780" x2="1140" y2="780" stroke="#0D2847"/>
  <line x1="120" y1="688" x2="1140" y2="688" stroke="#0D2847" stroke-dasharray="2 4"/>
  <line x1="120" y1="594" x2="1140" y2="594" stroke="#0D2847" stroke-dasharray="2 4"/>
  <line x1="120" y1="500" x2="1140" y2="500" stroke="#0D2847" stroke-dasharray="2 4"/>
  <line x1="120" y1="406" x2="1140" y2="406" stroke="#0D2847" stroke-dasharray="2 4"/>

  <!-- Stacked bars: 12 weeks. Each bar 70 wide, 14 gap.
       Stack bottom: confirmed (teal), middle: high-prob (sky), top: at-risk (amber). -->
  <g>
    <!-- W1 -->
    <rect x="146" y="600" width="56" height="180" rx="3" fill="#0CC9A8"/>
    <rect x="146" y="540" width="56" height="60" rx="3" fill="#5BC8FF"/>
    <rect x="146" y="510" width="56" height="30" rx="3" fill="#F59E0B"/>
    <!-- W2 -->
    <rect x="216" y="620" width="56" height="160" rx="3" fill="#0CC9A8"/>
    <rect x="216" y="560" width="56" height="60" rx="3" fill="#5BC8FF"/>
    <rect x="216" y="525" width="56" height="35" rx="3" fill="#F59E0B"/>
    <!-- W3 -->
    <rect x="286" y="580" width="56" height="200" rx="3" fill="#0CC9A8"/>
    <rect x="286" y="520" width="56" height="60" rx="3" fill="#5BC8FF"/>
    <rect x="286" y="490" width="56" height="30" rx="3" fill="#F59E0B"/>
    <!-- W4 -->
    <rect x="356" y="560" width="56" height="220" rx="3" fill="#0CC9A8"/>
    <rect x="356" y="490" width="56" height="70" rx="3" fill="#5BC8FF"/>
    <rect x="356" y="465" width="56" height="25" rx="3" fill="#F59E0B"/>
    <!-- W5 -->
    <rect x="426" y="540" width="56" height="240" rx="3" fill="#0CC9A8"/>
    <rect x="426" y="475" width="56" height="65" rx="3" fill="#5BC8FF"/>
    <rect x="426" y="445" width="56" height="30" rx="3" fill="#F59E0B"/>
    <!-- W6 -->
    <rect x="496" y="520" width="56" height="260" rx="3" fill="#0CC9A8"/>
    <rect x="496" y="455" width="56" height="65" rx="3" fill="#5BC8FF"/>
    <rect x="496" y="430" width="56" height="25" rx="3" fill="#F59E0B"/>
    <!-- W7 -->
    <rect x="566" y="510" width="56" height="270" rx="3" fill="#0CC9A8"/>
    <rect x="566" y="440" width="56" height="70" rx="3" fill="#5BC8FF"/>
    <rect x="566" y="416" width="56" height="24" rx="3" fill="#F59E0B"/>
    <!-- W8 -->
    <rect x="636" y="500" width="56" height="280" rx="3" fill="#0CC9A8"/>
    <rect x="636" y="425" width="56" height="75" rx="3" fill="#5BC8FF"/>
    <rect x="636" y="403" width="56" height="22" rx="3" fill="#F59E0B"/>
    <!-- W9 -->
    <rect x="706" y="490" width="56" height="290" rx="3" fill="#0CC9A8"/>
    <rect x="706" y="412" width="56" height="78" rx="3" fill="#5BC8FF"/>
    <rect x="706" y="395" width="56" height="17" rx="3" fill="#F59E0B"/>
    <!-- W10 -->
    <rect x="776" y="480" width="56" height="300" rx="3" fill="#0CC9A8"/>
    <rect x="776" y="404" width="56" height="76" rx="3" fill="#5BC8FF"/>
    <rect x="776" y="392" width="56" height="12" rx="3" fill="#F59E0B"/>
    <!-- W11 -->
    <rect x="846" y="470" width="56" height="310" rx="3" fill="#0CC9A8"/>
    <rect x="846" y="396" width="56" height="74" rx="3" fill="#5BC8FF"/>
    <rect x="846" y="388" width="56" height="8" rx="3" fill="#F59E0B"/>
    <!-- W12 -->
    <rect x="916" y="460" width="56" height="320" rx="3" fill="#0CC9A8"/>
    <rect x="916" y="388" width="56" height="72" rx="3" fill="#5BC8FF"/>
    <rect x="916" y="384" width="56" height="4" rx="3" fill="#F59E0B"/>
  </g>

  <!-- Confidence band -->
  <path d="M174 500 L244 510 L314 482 L384 460 L454 440 L524 422 L594 410 L664 396 L734 388 L804 380 L874 374 L944 368" fill="none" stroke="#5BC8FF" stroke-width="2" stroke-dasharray="3 3"/>

  <!-- X labels -->
  <text x="174" y="800" text-anchor="middle" class="m" font-size="10" fill="#8A9DB8">W1</text>
  <text x="244" y="800" text-anchor="middle" class="m" font-size="10" fill="#8A9DB8">W2</text>
  <text x="314" y="800" text-anchor="middle" class="m" font-size="10" fill="#8A9DB8">W3</text>
  <text x="384" y="800" text-anchor="middle" class="m" font-size="10" fill="#8A9DB8">W4</text>
  <text x="454" y="800" text-anchor="middle" class="m" font-size="10" fill="#8A9DB8">W5</text>
  <text x="524" y="800" text-anchor="middle" class="m" font-size="10" fill="#8A9DB8">W6</text>
  <text x="594" y="800" text-anchor="middle" class="m" font-size="10" fill="#8A9DB8">W7</text>
  <text x="664" y="800" text-anchor="middle" class="m" font-size="10" fill="#8A9DB8">W8</text>
  <text x="734" y="800" text-anchor="middle" class="m" font-size="10" fill="#8A9DB8">W9</text>
  <text x="804" y="800" text-anchor="middle" class="m" font-size="10" fill="#8A9DB8">W10</text>
  <text x="874" y="800" text-anchor="middle" class="m" font-size="10" fill="#8A9DB8">W11</text>
  <text x="944" y="800" text-anchor="middle" class="m" font-size="10" fill="#8A9DB8">W12</text>

  <!-- Right: Ageing buckets -->
  <rect x="1184" y="320" width="376" height="520" rx="14" fill="#0A1F3A" stroke="#0D2847"/>
  <text x="1208" y="356" class="f" font-size="16" font-weight="700" fill="#E8F0FA">Ageing buckets</text>
  <text x="1208" y="376" class="b" font-size="11" fill="#8A9DB8">Outstanding receivables by age</text>

  <!-- Bucket 1: Current -->
  <text x="1208" y="412" class="b" font-size="13" font-weight="600" fill="#E8F0FA">Not yet due</text>
  <text x="1536" y="412" text-anchor="end" class="m" font-size="13" fill="#0CC9A8">£124,000</text>
  <rect x="1208" y="424" width="328" height="14" rx="7" fill="#0D2847"/>
  <rect x="1208" y="424" width="290" height="14" rx="7" fill="#0CC9A8"/>

  <!-- Bucket 2: 1-30 days -->
  <text x="1208" y="476" class="b" font-size="13" font-weight="600" fill="#E8F0FA">1–30 days</text>
  <text x="1536" y="476" text-anchor="end" class="m" font-size="13" fill="#5BC8FF">£74,500</text>
  <rect x="1208" y="488" width="328" height="14" rx="7" fill="#0D2847"/>
  <rect x="1208" y="488" width="180" height="14" rx="7" fill="#5BC8FF"/>

  <!-- Bucket 3: 31-60 days -->
  <text x="1208" y="540" class="b" font-size="13" font-weight="600" fill="#E8F0FA">31–60 days</text>
  <text x="1536" y="540" text-anchor="end" class="m" font-size="13" fill="#F59E0B">£42,000</text>
  <rect x="1208" y="552" width="328" height="14" rx="7" fill="#0D2847"/>
  <rect x="1208" y="552" width="98" height="14" rx="7" fill="#F59E0B"/>

  <!-- Bucket 4: 61-90 days -->
  <text x="1208" y="604" class="b" font-size="13" font-weight="600" fill="#E8F0FA">61–90 days</text>
  <text x="1536" y="604" text-anchor="end" class="m" font-size="13" fill="#EF4444">£18,400</text>
  <rect x="1208" y="616" width="328" height="14" rx="7" fill="#0D2847"/>
  <rect x="1208" y="616" width="44" height="14" rx="7" fill="#EF4444"/>

  <!-- Bucket 5: 90+ -->
  <text x="1208" y="668" class="b" font-size="13" font-weight="600" fill="#E8F0FA">90+ days</text>
  <text x="1536" y="668" text-anchor="end" class="m" font-size="13" fill="#EF4444">£12,500</text>
  <rect x="1208" y="680" width="328" height="14" rx="7" fill="#0D2847"/>
  <rect x="1208" y="680" width="32" height="14" rx="7" fill="#EF4444"/>

  <!-- Total -->
  <line x1="1208" y1="724" x2="1536" y2="724" stroke="#0D2847"/>
  <text x="1208" y="752" class="b" font-size="11" font-weight="700" fill="#8A9DB8">TOTAL OUTSTANDING</text>
  <text x="1208" y="784" class="f" font-size="22" font-weight="700" fill="#E8F0FA">£271,400</text>

  <rect x="1208" y="798" width="328" height="32" rx="6" fill="#0CC9A8"/>
  <text x="1372" y="819" text-anchor="middle" class="b" font-size="12" font-weight="700" fill="#040E1A">Run AI batch chase</text>
</svg>
