<?xml version="1.0" encoding="UTF-8"?>
<svg xmlns="http://www.w3.org/2000/svg" viewBox="0 0 1600 900" role="img" aria-label="CrowAgent dashboard mockup with sidebar navigation, four KPI cards, line chart, and recent-activity table">
  <title>CrowAgent platform dashboard mockup</title>
  <desc>Synthetic dashboard view: KPI tiles, monthly trend chart, and recent activity. All data illustrative.</desc>
  <defs>
    <linearGradient id="bgGrad" x1="0" y1="0" x2="0" y2="1">
      <stop offset="0" stop-color="#040E1A"/>
      <stop offset="1" stop-color="#061525"/>
    </linearGradient>
    <linearGradient id="chartArea" x1="0" y1="0" x2="0" y2="1">
      <stop offset="0" stop-color="#0CC9A8" stop-opacity="0.45"/>
      <stop offset="1" stop-color="#0CC9A8" stop-opacity="0"/>
    </linearGradient>
    <linearGradient id="kpiAccent" x1="0" y1="0" x2="1" y2="0">
      <stop offset="0" stop-color="#0CC9A8"/>
      <stop offset="1" stop-color="#5BC8FF"/>
    </linearGradient>
  </defs>
  <style>
    .f { font-family: 'Plus Jakarta Sans', 'Inter', system-ui, sans-serif; }
    .b { font-family: 'Inter', system-ui, sans-serif; }
    .m { font-family: 'JetBrains Mono', ui-monospace, monospace; }
  </style>

  <!-- Page background -->
  <rect width="1600" height="900" fill="url(#bgGrad)"/>

  <!-- Window chrome -->
  <rect x="0" y="0" width="1600" height="44" fill="#0A1F3A"/>
  <circle cx="22" cy="22" r="6" fill="#EF4444"/>
  <circle cx="44" cy="22" r="6" fill="#F59E0B"/>
  <circle cx="66" cy="22" r="6" fill="#0CC9A8"/>
  <rect x="600" y="11" width="400" height="22" rx="11" fill="#040E1A"/>
  <text x="800" y="26" text-anchor="middle" class="b" font-size="11" fill="#8A9DB8">app.crowagent.ai/dashboard</text>

  <!-- Top bar -->
  <rect x="0" y="44" width="1600" height="64" fill="#0A1F3A"/>
  <line x1="0" y1="108" x2="1600" y2="108" stroke="#0D2847" stroke-width="1"/>
  <!-- Logo lockup -->
  <circle cx="44" cy="76" r="14" fill="#0CC9A8"/>
  <path d="M37 76 L43 82 L52 71" stroke="#040E1A" stroke-width="2.5" fill="none" stroke-linecap="round" stroke-linejoin="round"/>
  <text x="68" y="81" class="f" font-size="17" font-weight="700" fill="#E8F0FA">CrowAgent</text>
  <!-- Search -->
  <rect x="200" y="60" width="320" height="32" rx="16" fill="#0D2847"/>
  <circle cx="220" cy="76" r="6" fill="none" stroke="#8A9DB8" stroke-width="1.5"/>
  <line x1="225" y1="81" x2="230" y2="86" stroke="#8A9DB8" stroke-width="1.5" stroke-linecap="round"/>
  <text x="240" y="80" class="b" font-size="12" fill="#8A9DB8">Search properties, contracts, reports…</text>
  <!-- Account chip -->
  <rect x="1410" y="60" width="170" height="32" rx="16" fill="#0D2847"/>
  <circle cx="1428" cy="76" r="11" fill="#0CC9A8"/>
  <text x="1428" y="80" text-anchor="middle" class="f" font-size="11" font-weight="700" fill="#040E1A">AM</text>
  <text x="1448" y="80" class="b" font-size="12" fill="#E8F0FA">Alex M.</text>
  <text x="1448" y="80" class="b" font-size="12" fill="#E8F0FA"></text>
  <path d="M1560 73 L1565 78 L1570 73" stroke="#8A9DB8" stroke-width="1.5" fill="none" stroke-linecap="round" stroke-linejoin="round"/>

  <!-- Sidebar -->
  <rect x="0" y="108" width="240" height="792" fill="#0A1F3A"/>
  <line x1="240" y1="108" x2="240" y2="900" stroke="#0D2847" stroke-width="1"/>
  <!-- Sidebar nav items -->
  <!-- Active: Dashboard -->
  <rect x="12" y="140" width="216" height="40" rx="8" fill="#0CC9A8" fill-opacity="0.12"/>
  <rect x="12" y="140" width="3" height="40" fill="#0CC9A8"/>
  <rect x="28" y="152" width="16" height="16" rx="2" fill="none" stroke="#0CC9A8" stroke-width="1.6"/>
  <line x1="28" y1="160" x2="44" y2="160" stroke="#0CC9A8" stroke-width="1.6"/>
  <line x1="36" y1="168" x2="36" y2="160" stroke="#0CC9A8" stroke-width="1.6"/>
  <text x="58" y="165" class="b" font-size="13" font-weight="600" fill="#E8F0FA">Dashboard</text>

  <!-- Properties -->
  <rect x="28" y="200" width="14" height="14" rx="1" fill="none" stroke="#8A9DB8" stroke-width="1.5"/>
  <line x1="35" y1="200" x2="35" y2="214" stroke="#8A9DB8" stroke-width="1.5"/>
  <line x1="28" y1="207" x2="42" y2="207" stroke="#8A9DB8" stroke-width="1.5"/>
  <text x="58" y="213" class="b" font-size="13" fill="#B8CCE0">Properties</text>
  <rect x="194" y="201" width="30" height="18" rx="9" fill="#0D2847"/>
  <text x="209" y="213" text-anchor="middle" class="b" font-size="10" font-weight="600" fill="#8A9DB8">42</text>

  <!-- Compliance -->
  <path d="M28 244 L36 240 L44 244 V254 C44 258 36 262 36 262 C36 262 28 258 28 254 Z" fill="none" stroke="#8A9DB8" stroke-width="1.5" stroke-linejoin="round"/>
  <path d="M32 251 L35 254 L40 248" fill="none" stroke="#8A9DB8" stroke-width="1.5" stroke-linecap="round" stroke-linejoin="round"/>
  <text x="58" y="257" class="b" font-size="13" fill="#B8CCE0">Compliance</text>

  <!-- Reports -->
  <rect x="28" y="290" width="14" height="16" rx="1" fill="none" stroke="#8A9DB8" stroke-width="1.5"/>
  <line x1="31" y1="296" x2="39" y2="296" stroke="#8A9DB8" stroke-width="1.5"/>
  <line x1="31" y1="300" x2="39" y2="300" stroke="#8A9DB8" stroke-width="1.5"/>
  <text x="58" y="303" class="b" font-size="13" fill="#B8CCE0">Reports</text>

  <!-- Analytics -->
  <line x1="28" y1="350" x2="44" y2="350" stroke="#8A9DB8" stroke-width="1.5"/>
  <line x1="28" y1="350" x2="28" y2="336" stroke="#8A9DB8" stroke-width="1.5"/>
  <polyline points="30,346 34,341 38,343 42,338" fill="none" stroke="#8A9DB8" stroke-width="1.5" stroke-linecap="round" stroke-linejoin="round"/>
  <text x="58" y="351" class="b" font-size="13" fill="#B8CCE0">Analytics</text>

  <!-- Marketplace -->
  <rect x="28" y="382" width="14" height="14" rx="1" fill="none" stroke="#8A9DB8" stroke-width="1.5"/>
  <path d="M28 388 L42 388" stroke="#8A9DB8" stroke-width="1.5"/>
  <text x="58" y="397" class="b" font-size="13" fill="#B8CCE0">Marketplace</text>

  <!-- Settings -->
  <circle cx="35" cy="441" r="6" fill="none" stroke="#8A9DB8" stroke-width="1.5"/>
  <circle cx="35" cy="441" r="2" fill="#8A9DB8"/>
  <text x="58" y="445" class="b" font-size="13" fill="#B8CCE0">Settings</text>

  <!-- Sidebar footer: workspace switcher -->
  <line x1="12" y1="820" x2="228" y2="820" stroke="#0D2847"/>
  <rect x="20" y="836" width="200" height="44" rx="8" fill="#0D2847"/>
  <rect x="28" y="846" width="24" height="24" rx="4" fill="#0CC9A8"/>
  <text x="40" y="862" text-anchor="middle" class="f" font-size="11" font-weight="700" fill="#040E1A">NH</text>
  <text x="60" y="855" class="b" font-size="11" font-weight="600" fill="#E8F0FA">Northstar Holdings</text>
  <text x="60" y="869" class="b" font-size="10" fill="#8A9DB8">Portfolio plan</text>

  <!-- Main content area -->
  <!-- Page header -->
  <text x="280" y="160" class="f" font-size="24" font-weight="700" fill="#E8F0FA">Portfolio overview</text>
  <text x="280" y="184" class="b" font-size="13" fill="#8A9DB8">42 properties · 3 active products · last refreshed 2 min ago</text>
  <!-- Range chip -->
  <rect x="1380" y="148" width="180" height="34" rx="17" fill="#0D2847"/>
  <text x="1400" y="170" class="b" font-size="12" fill="#E8F0FA">Last 30 days</text>
  <path d="M1545 165 L1550 170 L1555 165" stroke="#8A9DB8" stroke-width="1.5" fill="none" stroke-linecap="round" stroke-linejoin="round"/>

  <!-- KPI cards -->
  <!-- KPI 1 -->
  <rect x="280" y="216" width="300" height="120" rx="12" fill="#0A1F3A" stroke="#0D2847"/>
  <rect x="280" y="216" width="300" height="3" rx="1.5" fill="url(#kpiAccent)"/>
  <text x="300" y="248" class="b" font-size="12" fill="#8A9DB8">Properties tracked</text>
  <text x="300" y="290" class="f" font-size="34" font-weight="700" fill="#E8F0FA">42</text>
  <text x="385" y="290" class="b" font-size="13" fill="#0CC9A8">+6</text>
  <text x="300" y="316" class="b" font-size="11" fill="#8A9DB8">vs. previous period</text>

  <!-- KPI 2 -->
  <rect x="600" y="216" width="300" height="120" rx="12" fill="#0A1F3A" stroke="#0D2847"/>
  <rect x="600" y="216" width="300" height="3" rx="1.5" fill="url(#kpiAccent)"/>
  <text x="620" y="248" class="b" font-size="12" fill="#8A9DB8">Penalty exposure avoided</text>
  <text x="620" y="290" class="f" font-size="34" font-weight="700" fill="#E8F0FA">£150,000</text>
  <text x="788" y="290" class="b" font-size="13" fill="#0CC9A8">+18%</text>
  <text x="620" y="316" class="b" font-size="11" fill="#8A9DB8">post-retrofit modelling</text>

  <!-- KPI 3 -->
  <rect x="920" y="216" width="300" height="120" rx="12" fill="#0A1F3A" stroke="#0D2847"/>
  <rect x="920" y="216" width="300" height="3" rx="1.5" fill="url(#kpiAccent)"/>
  <text x="940" y="248" class="b" font-size="12" fill="#8A9DB8">Compliance score</text>
  <text x="940" y="290" class="f" font-size="34" font-weight="700" fill="#E8F0FA">86%</text>
  <text x="1010" y="290" class="b" font-size="13" fill="#0CC9A8">+4 pts</text>
  <text x="940" y="316" class="b" font-size="11" fill="#8A9DB8">across portfolio</text>

  <!-- KPI 4 -->
  <rect x="1240" y="216" width="320" height="120" rx="12" fill="#0A1F3A" stroke="#0D2847"/>
  <rect x="1240" y="216" width="320" height="3" rx="1.5" fill="url(#kpiAccent)"/>
  <text x="1260" y="248" class="b" font-size="12" fill="#8A9DB8">Reports generated</text>
  <text x="1260" y="290" class="f" font-size="34" font-weight="700" fill="#E8F0FA">28</text>
  <text x="1320" y="290" class="b" font-size="13" fill="#F59E0B">3 pending</text>
  <text x="1260" y="316" class="b" font-size="11" fill="#8A9DB8">this billing cycle</text>

  <!-- Trend chart -->
  <rect x="280" y="360" width="800" height="320" rx="12" fill="#0A1F3A" stroke="#0D2847"/>
  <text x="304" y="392" class="f" font-size="15" font-weight="600" fill="#E8F0FA">Compliance trend</text>
  <text x="304" y="412" class="b" font-size="11" fill="#8A9DB8">Cross-product readiness, last 12 weeks</text>
  <!-- Chart legend -->
  <circle cx="900" cy="395" r="4" fill="#0CC9A8"/>
  <text x="910" y="399" class="b" font-size="11" fill="#B8CCE0">MEES</text>
  <circle cx="960" cy="395" r="4" fill="#5BC8FF"/>
  <text x="970" y="399" class="b" font-size="11" fill="#B8CCE0">CSRD</text>
  <circle cx="1020" cy="395" r="4" fill="#A78BFA"/>
  <text x="1030" y="399" class="b" font-size="11" fill="#B8CCE0">Cyber</text>

  <!-- Y-axis -->
  <line x1="320" y1="450" x2="320" y2="640" stroke="#0D2847"/>
  <text x="312" y="455" text-anchor="end" class="m" font-size="10" fill="#8A9DB8">100</text>
  <text x="312" y="500" text-anchor="end" class="m" font-size="10" fill="#8A9DB8">75</text>
  <text x="312" y="545" text-anchor="end" class="m" font-size="10" fill="#8A9DB8">50</text>
  <text x="312" y="590" text-anchor="end" class="m" font-size="10" fill="#8A9DB8">25</text>
  <text x="312" y="640" text-anchor="end" class="m" font-size="10" fill="#8A9DB8">0</text>
  <!-- X-axis -->
  <line x1="320" y1="640" x2="1060" y2="640" stroke="#0D2847"/>
  <!-- Grid -->
  <line x1="320" y1="500" x2="1060" y2="500" stroke="#0D2847" stroke-dasharray="2 4"/>
  <line x1="320" y1="545" x2="1060" y2="545" stroke="#0D2847" stroke-dasharray="2 4"/>
  <line x1="320" y1="590" x2="1060" y2="590" stroke="#0D2847" stroke-dasharray="2 4"/>

  <!-- Area under teal line -->
  <path d="M340 560 L420 540 L500 510 L580 525 L660 490 L740 470 L820 460 L900 445 L980 430 L1040 415 L1040 640 L340 640 Z" fill="url(#chartArea)"/>
  <!-- Teal MEES line -->
  <polyline points="340,560 420,540 500,510 580,525 660,490 740,470 820,460 900,445 980,430 1040,415" fill="none" stroke="#0CC9A8" stroke-width="2.5" stroke-linecap="round" stroke-linejoin="round"/>
  <!-- Sky CSRD line -->
  <polyline points="340,600 420,595 500,580 580,575 660,560 740,540 820,520 900,510 980,495 1040,475" fill="none" stroke="#5BC8FF" stroke-width="2" stroke-linecap="round" stroke-linejoin="round"/>
  <!-- Purple Cyber line -->
  <polyline points="340,580 420,560 500,555 580,545 660,535 740,520 820,505 900,490 980,475 1040,455" fill="none" stroke="#A78BFA" stroke-width="2" stroke-linecap="round" stroke-linejoin="round"/>

  <!-- Data points (last) -->
  <circle cx="1040" cy="415" r="4" fill="#0CC9A8" stroke="#0A1F3A" stroke-width="2"/>
  <circle cx="1040" cy="475" r="4" fill="#5BC8FF" stroke="#0A1F3A" stroke-width="2"/>
  <circle cx="1040" cy="455" r="4" fill="#A78BFA" stroke="#0A1F3A" stroke-width="2"/>

  <!-- X labels -->
  <text x="340" y="660" text-anchor="middle" class="m" font-size="9" fill="#8A9DB8">W1</text>
  <text x="500" y="660" text-anchor="middle" class="m" font-size="9" fill="#8A9DB8">W3</text>
  <text x="660" y="660" text-anchor="middle" class="m" font-size="9" fill="#8A9DB8">W6</text>
  <text x="820" y="660" text-anchor="middle" class="m" font-size="9" fill="#8A9DB8">W9</text>
  <text x="1040" y="660" text-anchor="middle" class="m" font-size="9" fill="#8A9DB8">W12</text>

  <!-- Activity feed card -->
  <rect x="1100" y="360" width="460" height="320" rx="12" fill="#0A1F3A" stroke="#0D2847"/>
  <text x="1124" y="392" class="f" font-size="15" font-weight="600" fill="#E8F0FA">Recent activity</text>
  <text x="1124" y="412" class="b" font-size="11" fill="#8A9DB8">Latest events across the portfolio</text>

  <!-- Item 1 -->
  <circle cx="1140" cy="450" r="14" fill="#0CC9A8" fill-opacity="0.16"/>
  <path d="M1135 450 L1139 454 L1147 446" stroke="#0CC9A8" stroke-width="1.8" fill="none" stroke-linecap="round" stroke-linejoin="round"/>
  <text x="1166" y="448" class="b" font-size="12" font-weight="600" fill="#E8F0FA">Compliance report generated</text>
  <text x="1166" y="464" class="b" font-size="11" fill="#8A9DB8">12 Mill Street, MK9 1AA · 2 min ago</text>

  <!-- Item 2 -->
  <circle cx="1140" cy="498" r="14" fill="#5BC8FF" fill-opacity="0.16"/>
  <path d="M1140 491 V498 L1145 502" stroke="#5BC8FF" stroke-width="1.8" fill="none" stroke-linecap="round"/>
  <text x="1166" y="496" class="b" font-size="12" font-weight="600" fill="#E8F0FA">CSRD assessment refreshed</text>
  <text x="1166" y="512" class="b" font-size="11" fill="#8A9DB8">Northstar Holdings Ltd · 18 min ago</text>

  <!-- Item 3 -->
  <circle cx="1140" cy="546" r="14" fill="#A78BFA" fill-opacity="0.16"/>
  <rect x="1133" y="538" width="14" height="16" rx="2" fill="none" stroke="#A78BFA" stroke-width="1.6"/>
  <text x="1166" y="544" class="b" font-size="12" font-weight="600" fill="#E8F0FA">Cyber Essentials evidence uploaded</text>
  <text x="1166" y="560" class="b" font-size="11" fill="#8A9DB8">Patch policy v2.1 · 1 hr ago</text>

  <!-- Item 4 -->
  <circle cx="1140" cy="594" r="14" fill="#F59E0B" fill-opacity="0.16"/>
  <path d="M1140 586 V596 M1140 600 V602" stroke="#F59E0B" stroke-width="1.8" stroke-linecap="round"/>
  <text x="1166" y="592" class="b" font-size="12" font-weight="600" fill="#E8F0FA">Retrofit scenario flagged at risk</text>
  <text x="1166" y="608" class="b" font-size="11" fill="#8A9DB8">47 King's Road, RG1 1AB · 3 hr ago</text>

  <!-- Item 5 -->
  <circle cx="1140" cy="642" r="14" fill="#0CC9A8" fill-opacity="0.16"/>
  <line x1="1135" y1="642" x2="1145" y2="642" stroke="#0CC9A8" stroke-width="1.8" stroke-linecap="round"/>
  <line x1="1140" y1="637" x2="1140" y2="647" stroke="#0CC9A8" stroke-width="1.8" stroke-linecap="round"/>
  <text x="1166" y="640" class="b" font-size="12" font-weight="600" fill="#E8F0FA">New property added</text>
  <text x="1166" y="656" class="b" font-size="11" fill="#8A9DB8">8 Garden Mews, EH3 7AA · today</text>

  <!-- Properties table -->
  <rect x="280" y="704" width="1280" height="172" rx="12" fill="#0A1F3A" stroke="#0D2847"/>
  <text x="304" y="736" class="f" font-size="15" font-weight="600" fill="#E8F0FA">Top properties by exposure</text>
  <!-- Header row -->
  <rect x="280" y="752" width="1280" height="28" fill="#040E1A"/>
  <text x="304" y="770" class="b" font-size="11" font-weight="600" fill="#8A9DB8">ADDRESS</text>
  <text x="700" y="770" class="b" font-size="11" font-weight="600" fill="#8A9DB8">EPC</text>
  <text x="820" y="770" class="b" font-size="11" font-weight="600" fill="#8A9DB8">MEES STATUS</text>
  <text x="1040" y="770" class="b" font-size="11" font-weight="600" fill="#8A9DB8">EXPOSURE</text>
  <text x="1280" y="770" class="b" font-size="11" font-weight="600" fill="#8A9DB8">SCENARIO</text>

  <!-- Row 1 -->
  <text x="304" y="804" class="b" font-size="12" fill="#E8F0FA">12 Mill Street, MK9 1AA</text>
  <rect x="700" y="794" width="28" height="20" rx="4" fill="#EF4444"/>
  <text x="714" y="808" text-anchor="middle" class="f" font-size="11" font-weight="700" fill="#040E1A">F</text>
  <rect x="820" y="794" width="100" height="20" rx="10" fill="#EF4444" fill-opacity="0.18"/>
  <text x="870" y="808" text-anchor="middle" class="b" font-size="11" font-weight="600" fill="#EF4444">At risk</text>
  <text x="1040" y="804" class="m" font-size="12" fill="#E8F0FA">£50,000</text>
  <text x="1280" y="804" class="b" font-size="12" fill="#0CC9A8">Premium</text>

  <!-- Row 2 -->
  <text x="304" y="836" class="b" font-size="12" fill="#E8F0FA">47 King's Road, RG1 1AB</text>
  <rect x="700" y="826" width="28" height="20" rx="4" fill="#F59E0B"/>
  <text x="714" y="840" text-anchor="middle" class="f" font-size="11" font-weight="700" fill="#040E1A">D</text>
  <rect x="820" y="826" width="100" height="20" rx="10" fill="#F59E0B" fill-opacity="0.18"/>
  <text x="870" y="840" text-anchor="middle" class="b" font-size="11" font-weight="600" fill="#F59E0B">Action needed</text>
  <text x="1040" y="836" class="m" font-size="12" fill="#E8F0FA">£25,000</text>
  <text x="1280" y="836" class="b" font-size="12" fill="#0CC9A8">Balanced</text>

  <!-- Row 3 -->
  <text x="304" y="868" class="b" font-size="12" fill="#E8F0FA">8 Garden Mews, EH3 7AA</text>
  <rect x="700" y="858" width="28" height="20" rx="4" fill="#0CC9A8"/>
  <text x="714" y="872" text-anchor="middle" class="f" font-size="11" font-weight="700" fill="#040E1A">B</text>
  <rect x="820" y="858" width="100" height="20" rx="10" fill="#0CC9A8" fill-opacity="0.18"/>
  <text x="870" y="872" text-anchor="middle" class="b" font-size="11" font-weight="600" fill="#0CC9A8">Compliant</text>
  <text x="1040" y="868" class="m" font-size="12" fill="#E8F0FA">£0</text>
  <text x="1280" y="868" class="b" font-size="12" fill="#8A9DB8">—</text>
</svg>
