<?xml version="1.0" encoding="UTF-8"?>
<svg xmlns="http://www.w3.org/2000/svg" viewBox="0 0 1600 900" role="img" aria-label="CrowMark evidence tracker mockup with monthly evidence calendar, file upload column and reminder timeline">
  <title>CrowMark evidence tracker</title>
  <desc>Post-award evidence tracker with TOMs measure list, evidence files uploaded, freshness pills, and monthly reminder cadence.</desc>
  <defs>
    <linearGradient id="bgETG" x1="0" y1="0" x2="0" y2="1">
      <stop offset="0" stop-color="#040E1A"/>
      <stop offset="1" stop-color="#061525"/>
    </linearGradient>
  </defs>
  <style>
    .f { font-family: 'Plus Jakarta Sans', system-ui, sans-serif; }
    .b { font-family: 'Inter', system-ui, sans-serif; }
    .m { font-family: 'JetBrains Mono', ui-monospace, monospace; }
  </style>
  <rect width="1600" height="900" fill="url(#bgETG)"/>

  <!-- Window chrome -->
  <rect x="0" y="0" width="1600" height="44" fill="#0A1F3A"/>
  <circle cx="22" cy="22" r="6" fill="#EF4444"/>
  <circle cx="44" cy="22" r="6" fill="#F59E0B"/>
  <circle cx="66" cy="22" r="6" fill="#0CC9A8"/>
  <rect x="600" y="11" width="400" height="22" rx="11" fill="#040E1A"/>
  <text x="800" y="26" text-anchor="middle" class="b" font-size="11" fill="#8A9DB8">app.crowagent.ai/crowmark/contracts/evidence</text>

  <rect x="0" y="44" width="1600" height="64" fill="#0A1F3A"/>
  <line x1="0" y1="108" x2="1600" y2="108" stroke="#0D2847"/>
  <circle cx="44" cy="76" r="14" fill="#A78BFA"/>
  <text x="44" y="82" text-anchor="middle" class="f" font-size="14" font-weight="700" fill="#040E1A">M</text>
  <text x="68" y="81" class="f" font-size="17" font-weight="700" fill="#E8F0FA">CrowMark</text>
  <text x="170" y="81" class="b" font-size="13" fill="#8A9DB8">Evidence tracker · Contract NCS-2026-471</text>

  <!-- Header -->
  <text x="68" y="160" class="f" font-size="26" font-weight="700" fill="#E8F0FA">Post-award evidence</text>
  <text x="68" y="184" class="b" font-size="13" fill="#8A9DB8">School catering services · West Midlands · Quarter 2 2026</text>

  <!-- Stats row -->
  <rect x="68" y="216" width="220" height="80" rx="10" fill="#0A1F3A" stroke="#0D2847"/>
  <text x="84" y="240" class="b" font-size="11" font-weight="600" fill="#8A9DB8">EVIDENCE FILES</text>
  <text x="84" y="274" class="f" font-size="24" font-weight="700" fill="#E8F0FA">28 / 32</text>

  <rect x="302" y="216" width="220" height="80" rx="10" fill="#0A1F3A" stroke="#0D2847"/>
  <text x="318" y="240" class="b" font-size="11" font-weight="600" fill="#8A9DB8">FRESH</text>
  <text x="318" y="274" class="f" font-size="24" font-weight="700" fill="#0CC9A8">22</text>

  <rect x="536" y="216" width="220" height="80" rx="10" fill="#0A1F3A" stroke="#0D2847"/>
  <text x="552" y="240" class="b" font-size="11" font-weight="600" fill="#8A9DB8">DUE SOON</text>
  <text x="552" y="274" class="f" font-size="24" font-weight="700" fill="#F59E0B">4</text>

  <rect x="770" y="216" width="220" height="80" rx="10" fill="#0A1F3A" stroke="#0D2847"/>
  <text x="786" y="240" class="b" font-size="11" font-weight="600" fill="#8A9DB8">OVERDUE</text>
  <text x="786" y="274" class="f" font-size="24" font-weight="700" fill="#EF4444">2</text>

  <rect x="1004" y="216" width="556" height="80" rx="10" fill="#0CC9A8" fill-opacity="0.12" stroke="#0CC9A8"/>
  <text x="1020" y="240" class="b" font-size="11" font-weight="600" fill="#0CC9A8">MONTHLY REMINDER · 1 JUN</text>
  <text x="1020" y="266" class="b" font-size="14" font-weight="600" fill="#E8F0FA">4 evidence uploads due in 22 days</text>
  <text x="1020" y="284" class="b" font-size="11" fill="#B8CCE0">Email + in-app · escalation after 7 days</text>

  <!-- Tracker table -->
  <rect x="68" y="320" width="1492" height="520" rx="14" fill="#0A1F3A" stroke="#0D2847"/>

  <!-- Header -->
  <rect x="68" y="320" width="1492" height="44" fill="#040E1A"/>
  <text x="92" y="347" class="b" font-size="11" font-weight="600" fill="#8A9DB8">TOMs MEASURE</text>
  <text x="540" y="347" class="b" font-size="11" font-weight="600" fill="#8A9DB8">TARGET</text>
  <text x="700" y="347" class="b" font-size="11" font-weight="600" fill="#8A9DB8">DELIVERED</text>
  <text x="880" y="347" class="b" font-size="11" font-weight="600" fill="#8A9DB8">EVIDENCE</text>
  <text x="1080" y="347" class="b" font-size="11" font-weight="600" fill="#8A9DB8">FRESHNESS</text>
  <text x="1280" y="347" class="b" font-size="11" font-weight="600" fill="#8A9DB8">NEXT REMINDER</text>
  <text x="1490" y="347" class="b" font-size="11" font-weight="600" fill="#8A9DB8">UPLOAD</text>

  <!-- Row helper for each row -->
  <!-- Row 1 -->
  <line x1="68" y1="364" x2="1560" y2="364" stroke="#0D2847"/>
  <text x="92" y="394" class="b" font-size="13" font-weight="600" fill="#E8F0FA">NT24 · SME training hours</text>
  <text x="92" y="412" class="b" font-size="11" fill="#8A9DB8">Wellbeing mission</text>
  <text x="540" y="394" class="m" font-size="12" fill="#E8F0FA">480 h</text>
  <text x="700" y="394" class="m" font-size="12" fill="#0CC9A8">412 h</text>
  <rect x="700" y="402" width="120" height="6" rx="3" fill="#0D2847"/>
  <rect x="700" y="402" width="103" height="6" rx="3" fill="#0CC9A8"/>
  <text x="880" y="394" class="b" font-size="12" fill="#E8F0FA">3 files</text>
  <rect x="1080" y="378" width="120" height="22" rx="11" fill="#0CC9A8" fill-opacity="0.18"/>
  <circle cx="1096" cy="389" r="3" fill="#0CC9A8"/>
  <text x="1106" y="393" class="b" font-size="11" font-weight="600" fill="#0CC9A8">Fresh · 12 d ago</text>
  <text x="1280" y="394" class="m" font-size="12" fill="#B8CCE0">1 Jul 2026</text>
  <rect x="1480" y="378" width="60" height="22" rx="6" fill="#0D2847"/>
  <text x="1510" y="393" text-anchor="middle" class="b" font-size="11" font-weight="600" fill="#A78BFA">+ Add</text>

  <!-- Row 2 -->
  <line x1="68" y1="424" x2="1560" y2="424" stroke="#0D2847"/>
  <text x="92" y="454" class="b" font-size="13" font-weight="600" fill="#E8F0FA">NT81 · Apprenticeships level 3+</text>
  <text x="92" y="472" class="b" font-size="11" fill="#8A9DB8">Wellbeing mission</text>
  <text x="540" y="454" class="m" font-size="12" fill="#E8F0FA">4</text>
  <text x="700" y="454" class="m" font-size="12" fill="#0CC9A8">2</text>
  <rect x="700" y="462" width="120" height="6" rx="3" fill="#0D2847"/>
  <rect x="700" y="462" width="60" height="6" rx="3" fill="#0CC9A8"/>
  <text x="880" y="454" class="b" font-size="12" fill="#E8F0FA">2 files</text>
  <rect x="1080" y="438" width="120" height="22" rx="11" fill="#0CC9A8" fill-opacity="0.18"/>
  <circle cx="1096" cy="449" r="3" fill="#0CC9A8"/>
  <text x="1106" y="453" class="b" font-size="11" font-weight="600" fill="#0CC9A8">Fresh · 6 d ago</text>
  <text x="1280" y="454" class="m" font-size="12" fill="#B8CCE0">1 Jul 2026</text>
  <rect x="1480" y="438" width="60" height="22" rx="6" fill="#0D2847"/>
  <text x="1510" y="453" text-anchor="middle" class="b" font-size="11" font-weight="600" fill="#A78BFA">+ Add</text>

  <!-- Row 3 -->
  <line x1="68" y1="484" x2="1560" y2="484" stroke="#0D2847"/>
  <text x="92" y="514" class="b" font-size="13" font-weight="600" fill="#E8F0FA">NT94 · VCSE / SME spend %</text>
  <text x="92" y="532" class="b" font-size="11" fill="#8A9DB8">Equal opportunity mission</text>
  <text x="540" y="514" class="m" font-size="12" fill="#E8F0FA">30%</text>
  <text x="700" y="514" class="m" font-size="12" fill="#F59E0B">21%</text>
  <rect x="700" y="522" width="120" height="6" rx="3" fill="#0D2847"/>
  <rect x="700" y="522" width="84" height="6" rx="3" fill="#F59E0B"/>
  <text x="880" y="514" class="b" font-size="12" fill="#E8F0FA">5 files</text>
  <rect x="1080" y="498" width="140" height="22" rx="11" fill="#F59E0B" fill-opacity="0.18"/>
  <circle cx="1096" cy="509" r="3" fill="#F59E0B"/>
  <text x="1106" y="513" class="b" font-size="11" font-weight="600" fill="#F59E0B">Due in 8 d</text>
  <text x="1280" y="514" class="m" font-size="12" fill="#F59E0B">17 May 2026</text>
  <rect x="1480" y="498" width="60" height="22" rx="6" fill="#A78BFA"/>
  <text x="1510" y="513" text-anchor="middle" class="b" font-size="11" font-weight="700" fill="#040E1A">Upload</text>

  <!-- Row 4 -->
  <line x1="68" y1="544" x2="1560" y2="544" stroke="#0D2847"/>
  <text x="92" y="574" class="b" font-size="13" font-weight="600" fill="#E8F0FA">NT43 · Carbon reduction (tCO2e)</text>
  <text x="92" y="592" class="b" font-size="11" font-weight="600" fill="#8A9DB8">Net zero mission</text>
  <text x="540" y="574" class="m" font-size="12" fill="#E8F0FA">25 t</text>
  <text x="700" y="574" class="m" font-size="12" fill="#0CC9A8">19 t</text>
  <rect x="700" y="582" width="120" height="6" rx="3" fill="#0D2847"/>
  <rect x="700" y="582" width="91" height="6" rx="3" fill="#0CC9A8"/>
  <text x="880" y="574" class="b" font-size="12" fill="#E8F0FA">4 files</text>
  <rect x="1080" y="558" width="120" height="22" rx="11" fill="#0CC9A8" fill-opacity="0.18"/>
  <circle cx="1096" cy="569" r="3" fill="#0CC9A8"/>
  <text x="1106" y="573" class="b" font-size="11" font-weight="600" fill="#0CC9A8">Fresh · 3 d ago</text>
  <text x="1280" y="574" class="m" font-size="12" fill="#B8CCE0">1 Jul 2026</text>
  <rect x="1480" y="558" width="60" height="22" rx="6" fill="#0D2847"/>
  <text x="1510" y="573" text-anchor="middle" class="b" font-size="11" font-weight="600" fill="#A78BFA">+ Add</text>

  <!-- Row 5 OVERDUE -->
  <line x1="68" y1="604" x2="1560" y2="604" stroke="#0D2847"/>
  <text x="92" y="634" class="b" font-size="13" font-weight="600" fill="#E8F0FA">NT19 · Local employment FTE</text>
  <text x="92" y="652" class="b" font-size="11" fill="#8A9DB8">Local skills &amp; jobs mission</text>
  <text x="540" y="634" class="m" font-size="12" fill="#E8F0FA">12 FTE</text>
  <text x="700" y="634" class="m" font-size="12" fill="#EF4444">7 FTE</text>
  <rect x="700" y="642" width="120" height="6" rx="3" fill="#0D2847"/>
  <rect x="700" y="642" width="70" height="6" rx="3" fill="#EF4444"/>
  <text x="880" y="634" class="b" font-size="12" fill="#E8F0FA">2 files</text>
  <rect x="1080" y="618" width="140" height="22" rx="11" fill="#EF4444" fill-opacity="0.18"/>
  <circle cx="1096" cy="629" r="3" fill="#EF4444"/>
  <text x="1106" y="633" class="b" font-size="11" font-weight="600" fill="#EF4444">Overdue · 4 d</text>
  <text x="1280" y="634" class="m" font-size="12" fill="#EF4444">5 May 2026</text>
  <rect x="1480" y="618" width="60" height="22" rx="6" fill="#EF4444"/>
  <text x="1510" y="633" text-anchor="middle" class="b" font-size="11" font-weight="700" fill="#E8F0FA">Upload</text>

  <!-- Row 6 -->
  <line x1="68" y1="664" x2="1560" y2="664" stroke="#0D2847"/>
  <text x="92" y="694" class="b" font-size="13" font-weight="600" fill="#E8F0FA">NT35 · Volunteering hours</text>
  <text x="92" y="712" class="b" font-size="11" fill="#8A9DB8">Wellbeing mission</text>
  <text x="540" y="694" class="m" font-size="12" fill="#E8F0FA">120 h</text>
  <text x="700" y="694" class="m" font-size="12" fill="#0CC9A8">96 h</text>
  <rect x="700" y="702" width="120" height="6" rx="3" fill="#0D2847"/>
  <rect x="700" y="702" width="96" height="6" rx="3" fill="#0CC9A8"/>
  <text x="880" y="694" class="b" font-size="12" fill="#E8F0FA">6 files</text>
  <rect x="1080" y="678" width="120" height="22" rx="11" fill="#0CC9A8" fill-opacity="0.18"/>
  <circle cx="1096" cy="689" r="3" fill="#0CC9A8"/>
  <text x="1106" y="693" class="b" font-size="11" font-weight="600" fill="#0CC9A8">Fresh · 1 d ago</text>
  <text x="1280" y="694" class="m" font-size="12" fill="#B8CCE0">1 Jul 2026</text>
  <rect x="1480" y="678" width="60" height="22" rx="6" fill="#0D2847"/>
  <text x="1510" y="693" text-anchor="middle" class="b" font-size="11" font-weight="600" fill="#A78BFA">+ Add</text>

  <!-- Footer -->
  <line x1="68" y1="734" x2="1560" y2="734" stroke="#0D2847"/>
  <text x="92" y="766" class="b" font-size="11" font-weight="600" fill="#8A9DB8">CONTRACT END · 31 MAR 2029</text>
  <text x="92" y="788" class="b" font-size="13" fill="#E8F0FA">Quarterly report due 30 Jun 2026 · Schedule 4.2 KPI dashboard auto-generated from this evidence</text>

  <rect x="1280" y="752" width="260" height="48" rx="8" fill="#A78BFA"/>
  <text x="1410" y="781" text-anchor="middle" class="b" font-size="13" font-weight="700" fill="#040E1A">Generate Q2 2026 report →</text>
</svg>
