<svg xmlns="http://www.w3.org/2000/svg" viewBox="0 0 1080 700" preserveAspectRatio="xMidYMid meet" role="img" aria-labelledby="heroDemoTitle" font-family="ui-sans-serif, system-ui, -apple-system, 'Segoe UI', Roboto, sans-serif">
  <title id="heroDemoTitle">CrowAgent compliance dashboard preview</title>
  <defs>
    <style>
      .bg-interior { fill: #0A1422; }
      .card-1 { fill: #0F1B2E; }
      .card-2 { fill: #11243F; }
      .hairline { stroke: rgba(255,255,255,0.08); stroke-width: 1; fill: none; }
      .text-cloud { fill: #E8EEF7; }
      .text-mist { fill: #8A9DB8; }
      .teal { fill: #0CC9A8; }
      .teal-soft { fill: rgba(12,201,168,0.18); }
      .green { fill: #22C55E; }
      .amber { fill: #F59E0B; }
      .red { fill: #EF4444; }
      .digit { font-variant-numeric: tabular-nums; }

      .pulse { animation: pulse 2s var(--ease, cubic-bezier(0.4,0,0.2,1)) infinite; }
      @keyframes pulse { 0%, 100% { opacity: 0.55; } 50% { opacity: 1; } }

      .cta-breathe { animation: cta-breathe 4s cubic-bezier(0.4,0,0.2,1) infinite; transform-origin: 836px 605px; transform-box: fill-box; }
      @keyframes cta-breathe { 0%, 100% { transform: scale(1); } 50% { transform: scale(1.02); } }

      .gauge-arc { stroke-dasharray: 660; stroke-dashoffset: 660; animation: gauge-sweep 6s cubic-bezier(0.2,0.8,0.2,1) infinite; }
      @keyframes gauge-sweep { 0% { stroke-dashoffset: 660; } 25%, 100% { stroke-dashoffset: 145; } }

      .chevron { animation: chevron-climb 6s cubic-bezier(0.2,0.8,0.2,1) infinite; }
      @keyframes chevron-climb {
        0%   { transform: translateY(0); }
        25%  { transform: translateY(-40px); }
        50%, 85% { transform: translateY(-80px); }
        100% { transform: translateY(0); opacity: 0; }
      }

      .tick-anim { animation: tick-fade 6s cubic-bezier(0.2,0.8,0.2,1) infinite; }
      @keyframes tick-fade { 0% { opacity: 0; } 18%, 100% { opacity: 1; } }

      .row-fade-1 { animation: row-fade 6s cubic-bezier(0.2,0.8,0.2,1) infinite; animation-delay: 0.2s; opacity: 0; }
      .row-fade-2 { animation: row-fade 6s cubic-bezier(0.2,0.8,0.2,1) infinite; animation-delay: 0.4s; opacity: 0; }
      .row-fade-3 { animation: row-fade 6s cubic-bezier(0.2,0.8,0.2,1) infinite; animation-delay: 0.6s; opacity: 0; }
      @keyframes row-fade { 0%, 5% { opacity: 0; transform: translateY(6px); } 18%, 100% { opacity: 1; transform: translateY(0); } }

      @media (prefers-reduced-motion: reduce) {
        .pulse, .cta-breathe, .gauge-arc, .chevron, .tick-anim,
        .row-fade-1, .row-fade-2, .row-fade-3 {
          animation: none !important;
          opacity: 1 !important;
          transform: none !important;
        }
        .gauge-arc { stroke-dashoffset: 145 !important; }
        .chevron { transform: translateY(-80px) !important; opacity: 1 !important; }
      }
    </style>
  </defs>

  <rect class="bg-interior" x="0" y="0" width="1080" height="700"/>

  <!-- ============ BAND 1: HEADER ============ -->
  <g transform="translate(40, 32)">
    <text x="0" y="16" class="text-cloud" font-size="16" font-weight="600">CrowAgent</text>
    <text x="100" y="16" class="text-mist" font-size="12">Compliance command centre</text>

    <g transform="translate(620, 0)">
      <g transform="translate(0, 0)">
        <circle cx="6" cy="10" r="5" class="green"/>
        <text x="20" y="14" class="text-mist" font-size="11">Cyber Essentials on track</text>
      </g>
      <g transform="translate(130, 0)">
        <circle cx="6" cy="10" r="5" class="amber"/>
        <text x="20" y="14" class="text-mist" font-size="11">CSRD filing window</text>
      </g>
      <g transform="translate(300, 0)">
        <circle cx="6" cy="10" r="5" class="text-mist" fill="#8A9DB8"/>
        <text x="20" y="14" class="text-mist" font-size="11">PPN-002 not in scope</text>
      </g>
    </g>
  </g>

  <line x1="40" y1="92" x2="1040" y2="92" class="hairline"/>

  <!-- ============ BAND 2: MAIN ROW (y=110..470) ============ -->

  <!-- A) Compliance gauge: x=40..360 -->
  <g transform="translate(40, 110)">
    <rect class="card-1" x="0" y="0" width="320" height="360" rx="12" ry="12"/>
    <rect class="hairline" x="0" y="0" width="320" height="360" rx="12" ry="12"/>

    <text x="20" y="32" class="teal" font-size="11" font-weight="600" letter-spacing="1.5">PORTFOLIO COMPLIANCE</text>

    <!-- background ring -->
    <circle cx="160" cy="190" r="105" fill="none" stroke="rgba(255,255,255,0.08)" stroke-width="18"/>
    <!-- dotted 50% mark -->
    <circle cx="160" cy="190" r="84" fill="none" stroke="#8A9DB8" stroke-width="1" stroke-dasharray="2 4" opacity="0.5"/>
    <!-- animated arc -->
    <circle class="gauge-arc" cx="160" cy="190" r="105" fill="none" stroke="#0CC9A8" stroke-width="18" stroke-linecap="round" transform="rotate(-90 160 190)"/>

    <text x="160" y="200" class="text-cloud digit" font-size="56" font-weight="700" text-anchor="middle">78%</text>
    <text x="160" y="226" class="text-mist" font-size="11" text-anchor="middle">Portfolio compliant</text>

    <!-- legend -->
    <g transform="translate(28, 310)">
      <rect class="green" x="0" y="0" width="8" height="8" rx="2"/>
      <text x="16" y="8" class="text-mist" font-size="11">Compliant</text>
      <text x="86" y="8" class="text-cloud digit" font-size="11" font-weight="600">193</text>
    </g>
    <g transform="translate(128, 310)">
      <rect class="amber" x="0" y="0" width="8" height="8" rx="2"/>
      <text x="16" y="8" class="text-mist" font-size="11">At risk</text>
      <text x="66" y="8" class="text-cloud digit" font-size="11" font-weight="600">38</text>
    </g>
    <g transform="translate(216, 310)">
      <rect class="red" x="0" y="0" width="8" height="8" rx="2"/>
      <text x="16" y="8" class="text-mist" font-size="11">Breach</text>
      <text x="66" y="8" class="text-cloud digit" font-size="11" font-weight="600">16</text>
    </g>
  </g>

  <!-- B) Readiness trajectory: x=380..720 -->
  <g transform="translate(380, 110)">
    <rect class="card-1" x="0" y="0" width="340" height="360" rx="12" ry="12"/>
    <rect class="hairline" x="0" y="0" width="340" height="360" rx="12" ry="12"/>

    <text x="20" y="32" class="teal" font-size="11" font-weight="600" letter-spacing="1.5">READINESS TRAJECTORY</text>
    <text x="20" y="52" class="text-cloud" font-size="14" font-weight="600">Targeting certification this year</text>

    <!-- 7 bars A..G, each 32px tall + 4px gap, start y=76 -->
    <g transform="translate(60, 76)">
      <!-- A -->
      <text x="-10" y="22" class="text-mist" font-size="11" text-anchor="end">A</text>
      <rect x="0" y="0" width="180" height="32" rx="4" fill="#1B2F4D"/>
      <rect x="0" y="0" width="14.4" height="32" rx="4" class="green"/>
      <text x="194" y="22" class="text-mist digit" font-size="11">4%</text>
      <!-- B -->
      <text x="-10" y="58" class="text-mist" font-size="11" text-anchor="end">B</text>
      <rect x="0" y="36" width="180" height="32" rx="4" fill="#1B2F4D"/>
      <rect x="0" y="36" width="39.6" height="32" rx="4" class="green"/>
      <text x="194" y="58" class="text-mist digit" font-size="11">11%</text>
      <!-- C -->
      <text x="-10" y="94" class="text-mist" font-size="11" text-anchor="end">C</text>
      <rect x="0" y="72" width="180" height="32" rx="4" fill="#1B2F4D"/>
      <rect x="0" y="72" width="79.2" height="32" rx="4" class="amber"/>
      <text x="194" y="94" class="text-mist digit" font-size="11">22%</text>
      <!-- D -->
      <text x="-10" y="130" class="text-mist" font-size="11" text-anchor="end">D</text>
      <rect x="0" y="108" width="180" height="32" rx="4" fill="#1B2F4D"/>
      <rect x="0" y="108" width="111.6" height="32" rx="4" class="amber"/>
      <text x="194" y="130" class="text-mist digit" font-size="11">31%</text>
      <!-- E (current band, chevron anchor) -->
      <text x="-10" y="166" class="text-mist" font-size="11" text-anchor="end">E</text>
      <rect x="0" y="144" width="180" height="32" rx="4" fill="#1B2F4D"/>
      <rect x="0" y="144" width="64.8" height="32" rx="4" fill="#C97A0C"/>
      <text x="194" y="166" class="text-mist digit" font-size="11">18%</text>
      <!-- F -->
      <text x="-10" y="202" class="text-mist" font-size="11" text-anchor="end">F</text>
      <rect x="0" y="180" width="180" height="32" rx="4" fill="#1B2F4D"/>
      <rect x="0" y="180" width="32.4" height="32" rx="4" fill="#C97A0C"/>
      <text x="194" y="202" class="text-mist digit" font-size="11">9%</text>
      <!-- G -->
      <text x="-10" y="238" class="text-mist" font-size="11" text-anchor="end">G</text>
      <rect x="0" y="216" width="180" height="32" rx="4" fill="#1B2F4D"/>
      <rect x="0" y="216" width="18" height="32" rx="4" class="red"/>
      <text x="194" y="238" class="text-mist digit" font-size="11">5%</text>

      <!-- Chevron: anchored at band E (y=160), animates up toward C (y=80) -->
      <g class="chevron" transform="translate(228, 160)">
        <path d="M0 0 L10 -8 L10 8 Z" class="teal"/>
        <text x="16" y="4" class="teal" font-size="10" font-weight="600" letter-spacing="0.5">CURRENT</text>
      </g>
    </g>
  </g>

  <!-- C) KPI tickers: x=740..1040 -->
  <g transform="translate(740, 110)">
    <!-- KPI 1 -->
    <g class="tick-anim">
      <rect class="card-1" x="0" y="0" width="300" height="108" rx="12" ry="12"/>
      <rect class="hairline" x="0" y="0" width="300" height="108" rx="12" ry="12"/>
      <text x="20" y="34" class="text-mist" font-size="11" letter-spacing="0.5">Properties tracked</text>
      <text x="20" y="72" class="text-cloud digit" font-size="32" font-weight="700">247</text>
      <g transform="translate(20, 86)">
        <path d="M0 0 L4 -4 L8 0 Z" class="green"/>
        <text x="14" y="2" class="green digit" font-size="11">12 added this week</text>
      </g>
    </g>
    <!-- KPI 2 -->
    <g class="tick-anim" transform="translate(0, 126)">
      <rect class="card-1" x="0" y="0" width="300" height="108" rx="12" ry="12"/>
      <rect class="hairline" x="0" y="0" width="300" height="108" rx="12" ry="12"/>
      <text x="20" y="34" class="text-mist" font-size="11" letter-spacing="0.5">Reports generated</text>
      <text x="20" y="72" class="text-cloud digit" font-size="32" font-weight="700">18</text>
      <g transform="translate(20, 86)">
        <path d="M0 0 L4 -4 L8 0 Z" class="green"/>
        <text x="14" y="2" class="green digit" font-size="11">3 awaiting review</text>
      </g>
    </g>
    <!-- KPI 3 -->
    <g class="tick-anim" transform="translate(0, 252)">
      <rect class="card-1" x="0" y="0" width="300" height="108" rx="12" ry="12"/>
      <rect class="hairline" x="0" y="0" width="300" height="108" rx="12" ry="12"/>
      <text x="20" y="34" class="text-mist" font-size="11" letter-spacing="0.5">Aggregate exposure prevented</text>
      <text x="20" y="72" class="text-cloud digit" font-size="28" font-weight="700">£284,000</text>
      <text x="20" y="92" class="text-mist" font-size="10">Illustrative, across 247 assets</text>
    </g>
  </g>

  <!-- ============ BAND 3: ACTION ROW (y=510..660) ============ -->
  <g transform="translate(40, 510)">
    <rect class="card-2" x="0" y="0" width="1000" height="130" rx="12" ry="12"/>
    <rect class="hairline" x="0" y="0" width="1000" height="130" rx="12" ry="12"/>

    <!-- Col 1: Next action -->
    <g transform="translate(28, 28)">
      <text x="0" y="0" class="teal" font-size="11" font-weight="600" letter-spacing="1.5">NEXT ACTION</text>
      <text x="0" y="34" class="text-cloud" font-size="17" font-weight="600">Submit Cyber Essentials evidence pack</text>
      <text x="0" y="60" class="text-mist" font-size="12">Due in 14 days, owner Alex Patel</text>
    </g>

    <!-- Col 2: Status pill (pulse) -->
    <g transform="translate(600, 44)" class="pulse">
      <rect x="0" y="0" width="140" height="40" rx="20" ry="20" fill="rgba(245,158,11,0.16)"/>
      <circle cx="20" cy="20" r="5" class="amber"/>
      <text x="34" y="25" class="amber" font-size="13" font-weight="600">In progress</text>
    </g>

    <!-- Col 3: CTA (breathe) -->
    <g class="cta-breathe" transform="translate(760, 38)">
      <rect x="0" y="0" width="216" height="52" rx="26" ry="26" class="teal"/>
      <text x="108" y="32" fill="#0A1422" font-size="14" font-weight="700" text-anchor="middle">Open in CrowAgent</text>
    </g>
  </g>

  <!-- Footer hairline -->
  <line x1="40" y1="668" x2="1040" y2="668" class="hairline"/>
  <text x="40" y="688" class="text-mist" font-size="10" letter-spacing="0.4">Preview of the CrowAgent compliance command centre, sample portfolio data</text>
</svg>
