<svg xmlns="http://www.w3.org/2000/svg" viewBox="0 0 1080 620" preserveAspectRatio="xMidYMid meet" role="img" aria-labelledby="step1Title" font-family="ui-sans-serif, system-ui, -apple-system, 'Segoe UI', Roboto, sans-serif">
  <title id="step1Title">Step 1: Upload your portfolio</title>
  <defs>
    <style>
      .bg { fill: #0A1422; }
      .c1 { fill: #0F1B2E; }
      .c2 { fill: #11243F; }
      .hair { stroke: rgba(255,255,255,0.08); stroke-width: 1; fill: none; }
      .cloud { fill: #E8EEF7; }
      .mist { fill: #8A9DB8; }
      .teal { fill: #0CC9A8; }
      .teal-stroke { stroke: #0CC9A8; fill: none; }
      .green { fill: #22C55E; }
      .digit { font-variant-numeric: tabular-nums; }

      .file-card { animation: file-drop 6s cubic-bezier(0.2,0.8,0.2,1) infinite; }
      @keyframes file-drop {
        0%      { transform: translate(0, -130px); opacity: 0; }
        7%      { transform: translate(0, -130px); opacity: 1; }
        27%, 90% { transform: translate(0, 0); opacity: 1; }
        100%    { transform: translate(0, 0); opacity: 0; }
      }

      .progress-fill { animation: progress 6s cubic-bezier(0.4,0,0.2,1) infinite; transform-origin: left; }
      @keyframes progress {
        0%, 27%  { transform: scaleX(0); }
        60%, 100% { transform: scaleX(1); }
      }

      .preview-row { opacity: 0; }
      .preview-row-1 { animation: row-in 6s cubic-bezier(0.2,0.8,0.2,1) infinite; animation-delay: 0s; }
      .preview-row-2 { animation: row-in 6s cubic-bezier(0.2,0.8,0.2,1) infinite; animation-delay: 0.1s; }
      .preview-row-3 { animation: row-in 6s cubic-bezier(0.2,0.8,0.2,1) infinite; animation-delay: 0.2s; }
      .preview-row-4 { animation: row-in 6s cubic-bezier(0.2,0.8,0.2,1) infinite; animation-delay: 0.3s; }
      .preview-row-5 { animation: row-in 6s cubic-bezier(0.2,0.8,0.2,1) infinite; animation-delay: 0.4s; }
      @keyframes row-in {
        0%, 60%  { opacity: 0; transform: translateY(4px); }
        72%, 95% { opacity: 1; transform: translateY(0); }
        100%     { opacity: 0; transform: translateY(0); }
      }

      .tick { opacity: 0; animation: tick-in 6s cubic-bezier(0.2,0.8,0.2,1) infinite; }
      @keyframes tick-in {
        0%, 70%  { opacity: 0; }
        78%, 100% { opacity: 1; }
      }

      @media (prefers-reduced-motion: reduce) {
        .file-card, .progress-fill, .preview-row, .preview-row-1, .preview-row-2,
        .preview-row-3, .preview-row-4, .preview-row-5, .tick {
          animation: none !important;
          opacity: 1 !important;
          transform: none !important;
        }
        .progress-fill { transform: scaleX(1) !important; }
      }
    </style>
  </defs>

  <rect class="bg" x="0" y="0" width="1080" height="620"/>

  <!-- Header -->
  <g transform="translate(40, 40)">
    <text x="0" y="14" class="teal" font-size="11" font-weight="600" letter-spacing="1.5">STEP 1, UPLOAD</text>
    <text x="0" y="46" class="cloud" font-size="22" font-weight="600">Bring your portfolio in</text>
    <text x="0" y="68" class="mist" font-size="13">CSV, XLSX, or PDF, up to 10,000 properties</text>
  </g>

  <!-- Upload zone (left) -->
  <g transform="translate(40, 130)">
    <rect class="c1" x="0" y="0" width="600" height="380" rx="16" ry="16"/>
    <rect x="14" y="14" width="572" height="352" rx="14" ry="14" fill="none" stroke="rgba(255,255,255,0.16)" stroke-width="1.5" stroke-dasharray="6 8"/>

    <!-- Cloud-with-arrow icon, centred -->
    <g transform="translate(284, 110)">
      <!-- cloud silhouette -->
      <path d="M8 24 Q0 24 0 16 Q0 8 10 8 Q12 0 22 0 Q34 0 36 10 Q44 10 44 16 Q44 24 36 24 Z" fill="#1B2F4D" transform="scale(0.8)"/>
      <!-- up arrow -->
      <path d="M16 28 L16 14 M10 18 L16 12 L22 18" stroke="#0CC9A8" stroke-width="2" fill="none" stroke-linecap="round" stroke-linejoin="round" transform="translate(0, 4)"/>
    </g>

    <text x="300" y="200" class="cloud" font-size="15" font-weight="600" text-anchor="middle">Drop CSV, XLSX or PDF</text>
    <text x="300" y="222" class="mist" font-size="12" text-anchor="middle">Or click to browse, up to 10,000 properties</text>

    <!-- Progress bar -->
    <g transform="translate(80, 280)">
      <rect x="0" y="0" width="440" height="8" rx="4" fill="#1B2F4D"/>
      <rect class="progress-fill" x="0" y="0" width="440" height="8" rx="4" fill="#0CC9A8"/>
      <text x="0" y="32" class="mist digit" font-size="11">portfolio.csv, 2.4 MB</text>
      <text x="440" y="32" class="teal digit" font-size="11" text-anchor="end" font-weight="600">Uploading</text>
    </g>
  </g>

  <!-- File card (animates dropping into the zone) -->
  <g class="file-card" transform="translate(240, 270)">
    <rect x="0" y="0" width="200" height="76" rx="10" ry="10" class="c2"/>
    <rect x="0" y="0" width="200" height="76" rx="10" ry="10" class="hair"/>
    <!-- file icon -->
    <g transform="translate(16, 16)">
      <path d="M0 0 L28 0 L40 12 L40 44 L0 44 Z" fill="#1B2F4D" stroke="rgba(255,255,255,0.12)" stroke-width="1"/>
      <path d="M28 0 L28 12 L40 12" fill="none" stroke="rgba(255,255,255,0.12)" stroke-width="1"/>
      <line x1="6" y1="22" x2="34" y2="22" stroke="#8A9DB8" stroke-width="1"/>
      <line x1="6" y1="28" x2="34" y2="28" stroke="#8A9DB8" stroke-width="1"/>
      <line x1="6" y1="34" x2="26" y2="34" stroke="#8A9DB8" stroke-width="1"/>
    </g>
    <text x="72" y="34" class="cloud" font-size="13" font-weight="600">portfolio.csv</text>
    <text x="72" y="54" class="mist digit" font-size="11">2.4 MB, 1,247 rows</text>
  </g>

  <!-- Right preview pane -->
  <g transform="translate(680, 130)">
    <rect class="c1" x="0" y="0" width="360" height="380" rx="16" ry="16"/>
    <rect class="c1 hair" x="0" y="0" width="360" height="380" rx="16" ry="16"/>

    <g transform="translate(20, 28)">
      <circle class="tick green" cx="6" cy="8" r="6"/>
      <path class="tick" d="M3 9 L5 11 L9 6" stroke="#0A1422" stroke-width="1.6" fill="none" stroke-linecap="round" stroke-linejoin="round" transform="translate(0, -1)"/>
      <text x="22" y="13" class="cloud" font-size="13" font-weight="600">Parsed 1,247 rows</text>
      <text x="22" y="30" class="mist" font-size="11">Live preview</text>
    </g>

    <!-- column headers -->
    <g transform="translate(20, 90)">
      <text x="0" y="0" class="mist" font-size="10" letter-spacing="0.6">ADDRESS</text>
      <text x="200" y="0" class="mist" font-size="10" letter-spacing="0.6">SQ FT</text>
      <text x="260" y="0" class="mist" font-size="10" letter-spacing="0.6">EPC</text>
      <line x1="0" y1="12" x2="320" y2="12" class="hair"/>
    </g>

    <!-- 5 data rows -->
    <g transform="translate(20, 116)">
      <g class="preview-row preview-row-1">
        <text x="0" y="14" class="cloud" font-size="12">27 Bedford Sq, WC1B</text>
        <text x="200" y="14" class="cloud digit" font-size="12">4,820</text>
        <rect x="258" y="2" width="22" height="16" rx="4" fill="rgba(245,158,11,0.18)"/>
        <text x="269" y="14" class="amber digit" font-size="11" text-anchor="middle" font-weight="600">D</text>
      </g>
      <g class="preview-row preview-row-2" transform="translate(0, 36)">
        <text x="0" y="14" class="cloud" font-size="12">14 Finsbury Circus, EC2M</text>
        <text x="200" y="14" class="cloud digit" font-size="12">12,400</text>
        <rect x="258" y="2" width="22" height="16" rx="4" fill="rgba(34,197,94,0.18)"/>
        <text x="269" y="14" class="green digit" font-size="11" text-anchor="middle" font-weight="600">B</text>
      </g>
      <g class="preview-row preview-row-3" transform="translate(0, 72)">
        <text x="0" y="14" class="cloud" font-size="12">8 Spital Yard, E1</text>
        <text x="200" y="14" class="cloud digit" font-size="12">2,150</text>
        <rect x="258" y="2" width="22" height="16" rx="4" fill="rgba(239,68,68,0.18)"/>
        <text x="269" y="14" class="red digit" font-size="11" text-anchor="middle" font-weight="600">F</text>
      </g>
      <g class="preview-row preview-row-4" transform="translate(0, 108)">
        <text x="0" y="14" class="cloud" font-size="12">120 Aldersgate, EC1A</text>
        <text x="200" y="14" class="cloud digit" font-size="12">7,910</text>
        <rect x="258" y="2" width="22" height="16" rx="4" fill="rgba(245,158,11,0.18)"/>
        <text x="269" y="14" class="amber digit" font-size="11" text-anchor="middle" font-weight="600">C</text>
      </g>
      <g class="preview-row preview-row-5" transform="translate(0, 144)">
        <text x="0" y="14" class="cloud" font-size="12">5 St Helens Place, EC3A</text>
        <text x="200" y="14" class="cloud digit" font-size="12">3,560</text>
        <rect x="258" y="2" width="22" height="16" rx="4" fill="rgba(34,197,94,0.18)"/>
        <text x="269" y="14" class="green digit" font-size="11" text-anchor="middle" font-weight="600">A</text>
      </g>
    </g>

    <text x="20" y="356" class="mist" font-size="10">Showing 5 of 1,247, illustrative addresses</text>
  </g>

  <!-- Footer hairline -->
  <line x1="40" y1="552" x2="1040" y2="552" class="hair"/>
  <g transform="translate(40, 580)">
    <text x="0" y="0" class="mist" font-size="10" letter-spacing="0.4">Files parse to a structured portfolio inside CrowAgent in under a minute</text>
  </g>
</svg>
