<?xml version="1.0" encoding="UTF-8"?>
<svg xmlns="http://www.w3.org/2000/svg" viewBox="0 0 1600 900" role="img" aria-label="CrowCash collections workspace mockup with overdue invoice list, statutory interest column, chase cadence pills and a cashflow forecast chart">
  <title>CrowCash collections workspace</title>
  <desc>Overdue invoice list with synthetic invoice numbers, days overdue, statutory interest under Late Payment Act 1998, polite/standard/firm chase cadence pills, and an inline cashflow forecast chart.</desc>
  <defs>
    <linearGradient id="bgG6" x1="0" y1="0" x2="0" y2="1">
      <stop offset="0" stop-color="#040E1A"/>
      <stop offset="1" stop-color="#061525"/>
    </linearGradient>
    <linearGradient id="cashArea" x1="0" y1="0" x2="0" y2="1">
      <stop offset="0" stop-color="#0CC9A8" stop-opacity="0.45"/>
      <stop offset="1" stop-color="#0CC9A8" stop-opacity="0"/>
    </linearGradient>
  </defs>
  <style>
    .f { font-family: 'Plus Jakarta Sans', system-ui, sans-serif; }
    .b { font-family: 'Inter', system-ui, sans-serif; }
    .m { font-family: 'JetBrains Mono', ui-monospace, monospace; }
  </style>

  <rect width="1600" height="900" fill="url(#bgG6)"/>

  <!-- Window chrome -->
  <rect x="0" y="0" width="1600" height="44" fill="#0A1F3A"/>
  <circle cx="22" cy="22" r="6" fill="#EF4444"/>
  <circle cx="44" cy="22" r="6" fill="#F59E0B"/>
  <circle cx="66" cy="22" r="6" fill="#0CC9A8"/>
  <rect x="600" y="11" width="400" height="22" rx="11" fill="#040E1A"/>
  <text x="800" y="26" text-anchor="middle" class="b" font-size="11" fill="#8A9DB8">app.crowagent.ai/crowcash/collections</text>

  <!-- Top bar -->
  <rect x="0" y="44" width="1600" height="64" fill="#0A1F3A"/>
  <line x1="0" y1="108" x2="1600" y2="108" stroke="#0D2847"/>
  <circle cx="44" cy="76" r="14" fill="#0CC9A8"/>
  <text x="44" y="82" text-anchor="middle" class="f" font-size="14" font-weight="700" fill="#040E1A">£</text>
  <text x="68" y="81" class="f" font-size="17" font-weight="700" fill="#E8F0FA">CrowCash</text>
  <text x="170" y="81" class="b" font-size="13" fill="#8A9DB8">Receivables · collections · forecasting</text>

  <!-- Page header -->
  <text x="68" y="158" class="f" font-size="26" font-weight="700" fill="#E8F0FA">Overdue invoices</text>
  <text x="68" y="184" class="b" font-size="13" fill="#8A9DB8">Meridian Estates Ltd · 12 invoices overdue · £74,500 outstanding</text>

  <!-- KPI bar -->
  <rect x="68" y="208" width="180" height="80" rx="10" fill="#0A1F3A" stroke="#0D2847"/>
  <text x="84" y="232" class="b" font-size="11" font-weight="600" fill="#8A9DB8">DSO</text>
  <text x="84" y="266" class="f" font-size="24" font-weight="700" fill="#E8F0FA">62 days</text>

  <rect x="262" y="208" width="180" height="80" rx="10" fill="#0A1F3A" stroke="#0D2847"/>
  <text x="278" y="232" class="b" font-size="11" font-weight="600" fill="#8A9DB8">OUTSTANDING</text>
  <text x="278" y="266" class="f" font-size="24" font-weight="700" fill="#E8F0FA">£74,500</text>

  <rect x="456" y="208" width="180" height="80" rx="10" fill="#0A1F3A" stroke="#0D2847"/>
  <text x="472" y="232" class="b" font-size="11" font-weight="600" fill="#8A9DB8">RECOVERED 30D</text>
  <text x="472" y="266" class="f" font-size="24" font-weight="700" fill="#0CC9A8">£25,000</text>

  <rect x="650" y="208" width="180" height="80" rx="10" fill="#0A1F3A" stroke="#0D2847"/>
  <text x="666" y="232" class="b" font-size="11" font-weight="600" fill="#8A9DB8">STATUTORY INT.</text>
  <text x="666" y="266" class="f" font-size="24" font-weight="700" fill="#F59E0B">£1,892</text>

  <!-- Forecast card right -->
  <rect x="850" y="208" width="710" height="80" rx="10" fill="#0A1F3A" stroke="#0D2847"/>
  <text x="866" y="232" class="b" font-size="11" font-weight="600" fill="#8A9DB8">CASHFLOW FORECAST · 30 DAYS</text>
  <text x="866" y="266" class="f" font-size="22" font-weight="700" fill="#E8F0FA">£86,400 expected</text>
  <text x="1080" y="266" class="b" font-size="13" fill="#0CC9A8">+£42k recovered if all chases convert</text>

  <!-- Forecast chart -->
  <rect x="1320" y="218" width="220" height="60" rx="6" fill="#040E1A"/>
  <path d="M1330 268 L1350 250 L1370 244 L1390 230 L1410 232 L1430 220 L1450 210 L1470 200 L1490 192 L1510 184 L1530 174 L1530 268 L1330 268 Z" fill="url(#cashArea)"/>
  <polyline points="1330,268 1350,250 1370,244 1390,230 1410,232 1430,220 1450,210 1470,200 1490,192 1510,184 1530,174" fill="none" stroke="#0CC9A8" stroke-width="2" stroke-linecap="round" stroke-linejoin="round"/>

  <!-- Invoice table -->
  <rect x="68" y="312" width="1492" height="528" rx="14" fill="#0A1F3A" stroke="#0D2847"/>

  <!-- Header -->
  <rect x="68" y="312" width="1492" height="44" fill="#040E1A"/>
  <text x="92" y="339" class="b" font-size="11" font-weight="600" fill="#8A9DB8">INVOICE</text>
  <text x="220" y="339" class="b" font-size="11" font-weight="600" fill="#8A9DB8">CUSTOMER</text>
  <text x="540" y="339" class="b" font-size="11" font-weight="600" fill="#8A9DB8">AMOUNT</text>
  <text x="700" y="339" class="b" font-size="11" font-weight="600" fill="#8A9DB8">DUE DATE</text>
  <text x="850" y="339" class="b" font-size="11" font-weight="600" fill="#8A9DB8">DAYS OVERDUE</text>
  <text x="1020" y="339" class="b" font-size="11" font-weight="600" fill="#8A9DB8">STATUTORY INT.</text>
  <text x="1200" y="339" class="b" font-size="11" font-weight="600" fill="#8A9DB8">CADENCE</text>
  <text x="1430" y="339" class="b" font-size="11" font-weight="600" fill="#8A9DB8">ACTION</text>

  <!-- Row 1: polite -->
  <line x1="68" y1="356" x2="1560" y2="356" stroke="#0D2847"/>
  <text x="92" y="386" class="m" font-size="12" font-weight="600" fill="#E8F0FA">INV-2026-0184</text>
  <text x="220" y="386" class="b" font-size="13" fill="#E8F0FA">Northstar Holdings Ltd</text>
  <text x="220" y="402" class="b" font-size="11" fill="#8A9DB8">alex@example.co.uk</text>
  <text x="540" y="386" class="m" font-size="13" font-weight="600" fill="#E8F0FA">£12,500</text>
  <text x="700" y="386" class="m" font-size="12" fill="#B8CCE0">02 Apr</text>
  <text x="850" y="386" class="m" font-size="13" font-weight="600" fill="#F59E0B">7 days</text>
  <text x="1020" y="386" class="m" font-size="12" fill="#E8F0FA">£40 + £24</text>
  <rect x="1200" y="368" width="100" height="24" rx="12" fill="#5BC8FF" fill-opacity="0.18"/>
  <text x="1250" y="385" text-anchor="middle" class="b" font-size="11" font-weight="600" fill="#5BC8FF">Polite</text>
  <rect x="1430" y="368" width="100" height="24" rx="6" fill="#0CC9A8"/>
  <text x="1480" y="385" text-anchor="middle" class="b" font-size="11" font-weight="700" fill="#040E1A">Send chase</text>

  <!-- Row 2: standard -->
  <line x1="68" y1="418" x2="1560" y2="418" stroke="#0D2847"/>
  <text x="92" y="448" class="m" font-size="12" font-weight="600" fill="#E8F0FA">INV-2026-0179</text>
  <text x="220" y="448" class="b" font-size="13" fill="#E8F0FA">Coastal Properties Ltd</text>
  <text x="220" y="464" class="b" font-size="11" fill="#8A9DB8">sam@example.co.uk</text>
  <text x="540" y="448" class="m" font-size="13" font-weight="600" fill="#E8F0FA">£9,800</text>
  <text x="700" y="448" class="m" font-size="12" fill="#B8CCE0">25 Mar</text>
  <text x="850" y="448" class="m" font-size="13" font-weight="600" fill="#F59E0B">15 days</text>
  <text x="1020" y="448" class="m" font-size="12" fill="#E8F0FA">£70 + £40</text>
  <rect x="1200" y="430" width="100" height="24" rx="12" fill="#F59E0B" fill-opacity="0.18"/>
  <text x="1250" y="447" text-anchor="middle" class="b" font-size="11" font-weight="600" fill="#F59E0B">Standard</text>
  <rect x="1430" y="430" width="100" height="24" rx="6" fill="#0CC9A8"/>
  <text x="1480" y="447" text-anchor="middle" class="b" font-size="11" font-weight="700" fill="#040E1A">Send chase</text>

  <!-- Row 3: firm -->
  <line x1="68" y1="480" x2="1560" y2="480" stroke="#0D2847"/>
  <text x="92" y="510" class="m" font-size="12" font-weight="600" fill="#E8F0FA">INV-2026-0162</text>
  <text x="220" y="510" class="b" font-size="13" fill="#E8F0FA">Meridian Estates Ltd</text>
  <text x="220" y="526" class="b" font-size="11" fill="#8A9DB8">jordan@example.co.uk</text>
  <text x="540" y="510" class="m" font-size="13" font-weight="600" fill="#E8F0FA">£18,400</text>
  <text x="700" y="510" class="m" font-size="12" fill="#B8CCE0">10 Mar</text>
  <text x="850" y="510" class="m" font-size="13" font-weight="700" fill="#EF4444">42 days</text>
  <text x="1020" y="510" class="m" font-size="12" fill="#E8F0FA">£100 + £210</text>
  <rect x="1200" y="492" width="100" height="24" rx="12" fill="#EF4444" fill-opacity="0.18"/>
  <text x="1250" y="509" text-anchor="middle" class="b" font-size="11" font-weight="600" fill="#EF4444">Firm</text>
  <rect x="1430" y="492" width="100" height="24" rx="6" fill="#EF4444"/>
  <text x="1480" y="509" text-anchor="middle" class="b" font-size="11" font-weight="700" fill="#E8F0FA">Escalate</text>

  <!-- Row 4: standard -->
  <line x1="68" y1="542" x2="1560" y2="542" stroke="#0D2847"/>
  <text x="92" y="572" class="m" font-size="12" font-weight="600" fill="#E8F0FA">INV-2026-0158</text>
  <text x="220" y="572" class="b" font-size="13" fill="#E8F0FA">Sample Limited</text>
  <text x="220" y="588" class="b" font-size="11" fill="#8A9DB8">finance@example.co.uk</text>
  <text x="540" y="572" class="m" font-size="13" font-weight="600" fill="#E8F0FA">£7,250</text>
  <text x="700" y="572" class="m" font-size="12" fill="#B8CCE0">22 Mar</text>
  <text x="850" y="572" class="m" font-size="13" font-weight="600" fill="#F59E0B">18 days</text>
  <text x="1020" y="572" class="m" font-size="12" fill="#E8F0FA">£70 + £36</text>
  <rect x="1200" y="554" width="100" height="24" rx="12" fill="#F59E0B" fill-opacity="0.18"/>
  <text x="1250" y="571" text-anchor="middle" class="b" font-size="11" font-weight="600" fill="#F59E0B">Standard</text>
  <rect x="1430" y="554" width="100" height="24" rx="6" fill="#0CC9A8"/>
  <text x="1480" y="571" text-anchor="middle" class="b" font-size="11" font-weight="700" fill="#040E1A">Send chase</text>

  <!-- Row 5: firm -->
  <line x1="68" y1="604" x2="1560" y2="604" stroke="#0D2847"/>
  <text x="92" y="634" class="m" font-size="12" font-weight="600" fill="#E8F0FA">INV-2026-0150</text>
  <text x="220" y="634" class="b" font-size="13" fill="#E8F0FA">Northstar Holdings Ltd</text>
  <text x="220" y="650" class="b" font-size="11" fill="#8A9DB8">alex@example.co.uk</text>
  <text x="540" y="634" class="m" font-size="13" font-weight="600" fill="#E8F0FA">£15,400</text>
  <text x="700" y="634" class="m" font-size="12" fill="#B8CCE0">28 Feb</text>
  <text x="850" y="634" class="m" font-size="13" font-weight="700" fill="#EF4444">52 days</text>
  <text x="1020" y="634" class="m" font-size="12" fill="#E8F0FA">£100 + £220</text>
  <rect x="1200" y="616" width="100" height="24" rx="12" fill="#EF4444" fill-opacity="0.18"/>
  <text x="1250" y="633" text-anchor="middle" class="b" font-size="11" font-weight="600" fill="#EF4444">Firm</text>
  <rect x="1430" y="616" width="100" height="24" rx="6" fill="#EF4444"/>
  <text x="1480" y="633" text-anchor="middle" class="b" font-size="11" font-weight="700" fill="#E8F0FA">Escalate</text>

  <!-- AI score row -->
  <line x1="68" y1="666" x2="1560" y2="666" stroke="#0D2847"/>
  <text x="92" y="696" class="m" font-size="12" font-weight="600" fill="#E8F0FA">INV-2026-0144</text>
  <text x="220" y="696" class="b" font-size="13" fill="#E8F0FA">Coastal Properties Ltd</text>
  <text x="220" y="712" class="b" font-size="11" fill="#8A9DB8">sam@example.co.uk</text>
  <text x="540" y="696" class="m" font-size="13" font-weight="600" fill="#E8F0FA">£11,150</text>
  <text x="700" y="696" class="m" font-size="12" fill="#B8CCE0">14 Mar</text>
  <text x="850" y="696" class="m" font-size="13" font-weight="600" fill="#F59E0B">26 days</text>
  <text x="1020" y="696" class="m" font-size="12" fill="#E8F0FA">£70 + £75</text>
  <rect x="1200" y="678" width="100" height="24" rx="12" fill="#F59E0B" fill-opacity="0.18"/>
  <text x="1250" y="695" text-anchor="middle" class="b" font-size="11" font-weight="600" fill="#F59E0B">Standard</text>
  <rect x="1430" y="678" width="100" height="24" rx="6" fill="#0CC9A8"/>
  <text x="1480" y="695" text-anchor="middle" class="b" font-size="11" font-weight="700" fill="#040E1A">Send chase</text>

  <!-- AI score chip -->
  <rect x="68" y="730" width="1492" height="92" rx="10" fill="#040E1A" stroke="#A78BFA" stroke-opacity="0.4"/>
  <circle cx="100" cy="776" r="22" fill="#A78BFA" fill-opacity="0.18"/>
  <path d="M92 776 L96 780 L108 768" stroke="#A78BFA" stroke-width="2" fill="none" stroke-linecap="round" stroke-linejoin="round"/>
  <text x="136" y="764" class="b" font-size="13" font-weight="700" fill="#E8F0FA">AI payment likelihood (Pro+)</text>
  <text x="136" y="784" class="b" font-size="11" fill="#8A9DB8">Combines payment history, ageing, sector and macro signals — re-scored every 24 h</text>

  <!-- Mini score legend -->
  <rect x="900" y="752" width="100" height="44" rx="8" fill="#0CC9A8" fill-opacity="0.16"/>
  <text x="950" y="772" text-anchor="middle" class="m" font-size="14" font-weight="700" fill="#0CC9A8">High</text>
  <text x="950" y="788" text-anchor="middle" class="m" font-size="10" fill="#0CC9A8">8 invoices</text>

  <rect x="1014" y="752" width="100" height="44" rx="8" fill="#F59E0B" fill-opacity="0.16"/>
  <text x="1064" y="772" text-anchor="middle" class="m" font-size="14" font-weight="700" fill="#F59E0B">Med</text>
  <text x="1064" y="788" text-anchor="middle" class="m" font-size="10" fill="#F59E0B">3 invoices</text>

  <rect x="1128" y="752" width="100" height="44" rx="8" fill="#EF4444" fill-opacity="0.16"/>
  <text x="1178" y="772" text-anchor="middle" class="m" font-size="14" font-weight="700" fill="#EF4444">Low</text>
  <text x="1178" y="788" text-anchor="middle" class="m" font-size="10" fill="#EF4444">1 invoice</text>

  <rect x="1340" y="752" width="190" height="44" rx="8" fill="#0CC9A8"/>
  <text x="1435" y="781" text-anchor="middle" class="b" font-size="13" font-weight="700" fill="#040E1A">Run AI batch chase</text>
</svg>
