<?xml version="1.0" encoding="UTF-8"?>
<svg xmlns="http://www.w3.org/2000/svg" viewBox="0 0 1600 900" width="1600" height="900" preserveAspectRatio="xMidYMid meet" role="img" aria-label="Retrofit scenario planner with three cost columns, NPV labels, payback period mini-chart and EPC band gauge">
  <title>Retrofit scenario planner</title>
  <desc>Three retrofit cost scenarios (Low Cost, Balanced, Premium) with CapEx, 25-year NPV, payback period mini-chart and an EPC band gauge from F through A. Synthetic figures for illustration only.</desc>
  <defs>
    <linearGradient id="rpBg" x1="0" y1="0" x2="0" y2="1">
      <stop offset="0" stop-color="#040E1A"/>
      <stop offset="1" stop-color="#061525"/>
    </linearGradient>
    <linearGradient id="rpAcc" x1="0" y1="0" x2="1" y2="0">
      <stop offset="0" stop-color="#0CC9A8"/>
      <stop offset="1" stop-color="#5BC8FF"/>
    </linearGradient>
  </defs>
  <style>
    .f{font-family:'Plus Jakarta Sans',system-ui,sans-serif}
    .b{font-family:'Inter',system-ui,sans-serif}
    .m{font-family:'JetBrains Mono',ui-monospace,monospace}
    .teal{fill:#0CC9A8}
    .mark{fill:#A78BFA}
    .sky{fill:#5BC8FF}
    .cloud{fill:#E4ECF7}
    .steel{fill:#8A9DB8}
    @keyframes sf23ax-soft{0%,100%{opacity:1}50%{opacity:.78}}
    @keyframes sf23ax-blink{0%,100%{opacity:1}50%{opacity:.4}}
    @keyframes sf23ax-march{from{stroke-dashoffset:0}to{stroke-dashoffset:-32}}
    @keyframes sf23ax-breathe{0%,100%{opacity:1}50%{opacity:.88}}
    rect[fill="#0CC9A8"]:not([fill-opacity]){animation:sf23ax-soft 3.8s ease-in-out infinite}
    rect[fill="#F59E0B"]:not([fill-opacity]){animation:sf23ax-soft 2.6s ease-in-out infinite}
    rect[fill="#EF4444"]:not([fill-opacity]){animation:sf23ax-blink 2s ease-in-out infinite}
    rect[fill="#5BC8FF"]:not([fill-opacity]){animation:sf23ax-soft 4.4s ease-in-out infinite}
    rect.teal{animation:sf23ax-soft 3.8s ease-in-out infinite}
    rect.sky{animation:sf23ax-soft 4.4s ease-in-out infinite}
    rect.mark{animation:sf23ax-breathe 5s ease-in-out infinite}
    circle[fill="#0CC9A8"]{animation:sf23ax-soft 3.8s ease-in-out infinite}
    circle[fill="#F59E0B"]{animation:sf23ax-soft 2.6s ease-in-out infinite}
    circle[fill="#EF4444"]{animation:sf23ax-blink 2s ease-in-out infinite}
    circle[fill="#5BC8FF"]{animation:sf23ax-soft 4.4s ease-in-out infinite}
    polyline{stroke-dasharray:8 6;animation:sf23ax-march 2.4s linear infinite}
    text[font-size="20"],text[font-size="22"],text[font-size="24"],text[font-size="26"],text[font-size="28"],text[font-size="32"],text[font-size="34"],text[font-size="56"],text[font-size="92"]{animation:sf23ax-breathe 5.4s ease-in-out infinite}
    @media (prefers-reduced-motion:reduce){*{animation:none!important}}
  </style>
  <rect width="1600" height="900" fill="url(#rpBg)"/>
  <!-- chrome -->
  <rect width="1600" height="44" fill="#0A1F3A"/>
  <circle cx="22" cy="22" r="6" fill="#EF4444"/>
  <circle cx="44" cy="22" r="6" fill="#F59E0B"/>
  <circle cx="66" cy="22" r="6" fill="#0CC9A8"/>
  <rect x="600" y="11" width="400" height="22" rx="11" fill="#040E1A"/>
  <text x="800" y="26" text-anchor="middle" class="b steel" font-size="11">app.crowagent.ai/core/retrofit-planner</text>
  <!-- top bar -->
  <rect y="44" width="1600" height="64" fill="#0A1F3A"/>
  <line y1="108" x2="1600" y2="108" stroke="#0D2847"/>
  <circle cx="44" cy="76" r="14" class="teal"/>
  <path d="M37 76l6 6 9-11" stroke="#040E1A" stroke-width="2.5" fill="none" stroke-linecap="round" stroke-linejoin="round"/>
  <text x="68" y="81" class="f cloud" font-size="17" font-weight="700">CrowAgent</text>
  <text x="232" y="81" class="b steel" font-size="13">Retrofit planner · 12 Mill Street, MK9 1AA</text>
  <rect x="1394" y="60" width="138" height="32" rx="16" fill="#0D2847"/>
  <text x="1463" y="80" text-anchor="middle" class="b cloud" font-size="11" font-weight="600">Export Green Book pack</text>
  <!-- breadcrumb / header -->
  <text x="68" y="146" class="b steel" font-size="12">Properties › 12 Mill Street › Retrofit planner</text>
  <text x="68" y="184" class="f cloud" font-size="26" font-weight="700">Retrofit cost scenarios</text>
  <text x="68" y="208" class="b steel" font-size="13">EPC F → C target · HM Treasury Green Book 3.5% discount rate · 25-year horizon</text>
  <!-- KPI strip -->
  <g>
    <rect x="68" y="228" width="220" height="60" rx="10" fill="#0A1F3A" stroke="#0D2847"/>
    <text x="84" y="250" class="b steel" font-size="10" font-weight="600">PROPERTY VALUE</text>
    <text x="84" y="278" class="f cloud" font-size="18" font-weight="700">£2.4m</text>
    <rect x="302" y="228" width="220" height="60" rx="10" fill="#0A1F3A" stroke="#0D2847"/>
    <text x="318" y="250" class="b steel" font-size="10" font-weight="600">CURRENT EPC</text>
    <text x="318" y="278" class="f cloud" font-size="18" font-weight="700">F · 28</text>
    <rect x="536" y="228" width="220" height="60" rx="10" fill="#0A1F3A" stroke="#0D2847"/>
    <text x="552" y="250" class="b steel" font-size="10" font-weight="600">MEES BAND C 2028</text>
    <text x="552" y="278" class="f" font-size="18" font-weight="700" fill="#F59E0B">Risk: high</text>
    <rect x="770" y="228" width="220" height="60" rx="10" fill="#0A1F3A" stroke="#0D2847"/>
    <text x="786" y="250" class="b steel" font-size="10" font-weight="600">FLOOR AREA</text>
    <text x="786" y="278" class="f cloud" font-size="18" font-weight="700">1,840 m²</text>
    <rect x="1004" y="228" width="220" height="60" rx="10" fill="#0A1F3A" stroke="#0D2847"/>
    <text x="1020" y="250" class="b steel" font-size="10" font-weight="600">ANNUAL ENERGY</text>
    <text x="1020" y="278" class="f cloud" font-size="18" font-weight="700">312 MWh</text>
    <rect x="1238" y="228" width="294" height="60" rx="10" fill="#0A1F3A" stroke="#0D2847"/>
    <text x="1254" y="250" class="b steel" font-size="10" font-weight="600">CARBON BASELINE</text>
    <text x="1254" y="278" class="f cloud" font-size="18" font-weight="700">68 tCO₂e/yr</text>
  </g>
  <!-- 3 scenario columns -->
  <g>
    <!-- A: Low Cost -->
    <rect x="68" y="308" width="468" height="552" rx="14" fill="#0A1F3A" stroke="#0D2847"/>
    <rect x="68" y="308" width="468" height="6" rx="3" class="sky"/>
    <text x="92" y="346" class="f sky" font-size="11" font-weight="700">SCENARIO A · LOW COST</text>
    <text x="92" y="378" class="f cloud" font-size="22" font-weight="700">Quick wins</text>
    <text x="92" y="400" class="b steel" font-size="12">LED · draft-proofing · smart heating · BMS tune-up</text>
    <line x1="92" y1="418" x2="512" y2="418" stroke="#0D2847"/>
    <text x="92" y="442" class="b steel" font-size="10" font-weight="600">CAPEX</text>
    <text x="92" y="470" class="f cloud" font-size="22" font-weight="700">£25,000</text>
    <text x="252" y="442" class="b steel" font-size="10" font-weight="600">25-YR NPV</text>
    <text x="252" y="470" class="f teal" font-size="22" font-weight="700">£42,000</text>
    <text x="412" y="442" class="b steel" font-size="10" font-weight="600">IRR</text>
    <text x="412" y="470" class="f cloud" font-size="22" font-weight="700">14%</text>
    <text x="92" y="500" class="b steel" font-size="10" font-weight="600">PAYBACK</text>
    <text x="92" y="528" class="f cloud" font-size="22" font-weight="700">6.2 yrs</text>
    <text x="252" y="500" class="b steel" font-size="10" font-weight="600">tCO₂e SAVED/YR</text>
    <text x="252" y="528" class="f teal" font-size="22" font-weight="700">11.4</text>
    <!-- Payback mini-chart: cumulative cashflow 10 yrs -->
    <text x="92" y="556" class="b steel" font-size="10" font-weight="600">PAYBACK CHART (10 YR, £k)</text>
    <rect x="92" y="566" width="420" height="118" rx="8" fill="#040E1A"/>
    <line x1="100" y1="666" x2="504" y2="666" stroke="#0D2847"/>
    <line x1="100" y1="624" x2="504" y2="624" stroke="#0D2847" stroke-dasharray="2 4"/>
    <line x1="100" y1="582" x2="504" y2="582" stroke="#0D2847" stroke-dasharray="2 4"/>
    <!-- baseline zero -->
    <line x1="100" y1="640" x2="504" y2="640" stroke="#8A9DB8" stroke-width="1"/>
    <text x="98" y="586" text-anchor="end" class="m steel" font-size="8">+40</text>
    <text x="98" y="644" text-anchor="end" class="m steel" font-size="8">0</text>
    <text x="98" y="672" text-anchor="end" class="m steel" font-size="8">-25</text>
    <!-- cumulative line: starts at -25, hits zero ~yr6, reaches +17 yr10 -->
    <polyline points="100,672 140,668 180,660 220,648 260,640 300,632 340,620 380,608 420,596 460,584 500,576" stroke="#5BC8FF" stroke-width="2" fill="none"/>
    <circle cx="300" cy="632" r="4" fill="#0CC9A8"/>
    <text x="306" y="624" class="b teal" font-size="9" font-weight="600">break-even yr 6.2</text>
    <!-- EPC band gauge -->
    <text x="92" y="708" class="b steel" font-size="10" font-weight="600">EPC BAND</text>
    <g transform="translate(92,718)">
      <rect width="60" height="22" rx="4" fill="#EF4444"/><text x="30" y="16" text-anchor="middle" class="f" font-size="12" font-weight="700" fill="#040E1A">F · 28</text>
      <path d="M68 11h18m-4-4l4 4-4 4" stroke="#8A9DB8" stroke-width="1.5" fill="none" stroke-linecap="round" stroke-linejoin="round"/>
      <rect x="92" width="60" height="22" rx="4" fill="#F59E0B"/><text x="122" y="16" text-anchor="middle" class="f" font-size="12" font-weight="700" fill="#040E1A">E · 48</text>
      <rect x="160" width="60" height="22" rx="4" fill="#FCD34D"/><text x="190" y="16" text-anchor="middle" class="f" font-size="12" font-weight="700" fill="#040E1A">D · 62</text>
      <rect x="228" width="60" height="22" rx="4" fill="#0CC9A8"/><text x="258" y="16" text-anchor="middle" class="f" font-size="12" font-weight="700" fill="#040E1A">C · 74</text>
      <rect x="296" width="60" height="22" rx="4" fill="#0D2847" stroke="#0D2847"/><text x="326" y="16" text-anchor="middle" class="b steel" font-size="11">B</text>
      <rect x="364" width="56" height="22" rx="4" fill="#0D2847" stroke="#0D2847"/><text x="392" y="16" text-anchor="middle" class="b steel" font-size="11">A</text>
    </g>
    <rect x="92" y="788" width="420" height="36" rx="8" fill="#0D2847"/>
    <text x="302" y="811" text-anchor="middle" class="b sky" font-size="12" font-weight="600">Select Low Cost →</text>
  </g>
  <!-- B: Balanced (recommended) -->
  <g>
    <rect x="566" y="296" width="468" height="564" rx="14" fill="#0A1F3A" stroke="#0CC9A8" stroke-width="2"/>
    <rect x="566" y="296" width="468" height="6" rx="3" class="teal"/>
    <rect x="784" y="284" width="138" height="24" rx="12" class="teal"/>
    <text x="853" y="300" text-anchor="middle" class="b" font-size="11" font-weight="700" fill="#040E1A">Recommended</text>
    <text x="590" y="334" class="f teal" font-size="11" font-weight="700">SCENARIO B · BALANCED</text>
    <text x="590" y="366" class="f cloud" font-size="22" font-weight="700">Fabric first + ASHP</text>
    <text x="590" y="388" class="b steel" font-size="12">Air-source heat pump · insulation · LED · controls upgrade</text>
    <line x1="590" y1="406" x2="1010" y2="406" stroke="#0D2847"/>
    <text x="590" y="430" class="b steel" font-size="10" font-weight="600">CAPEX</text>
    <text x="590" y="458" class="f cloud" font-size="22" font-weight="700">£50,000</text>
    <text x="750" y="430" class="b steel" font-size="10" font-weight="600">25-YR NPV</text>
    <text x="750" y="458" class="f teal" font-size="22" font-weight="700">£118k</text>
    <text x="910" y="430" class="b steel" font-size="10" font-weight="600">IRR</text>
    <text x="910" y="458" class="f cloud" font-size="22" font-weight="700">19%</text>
    <text x="590" y="488" class="b steel" font-size="10" font-weight="600">PAYBACK</text>
    <text x="590" y="516" class="f cloud" font-size="22" font-weight="700">8.4 yrs</text>
    <text x="750" y="488" class="b steel" font-size="10" font-weight="600">tCO₂e SAVED/YR</text>
    <text x="750" y="516" class="f teal" font-size="22" font-weight="700">38.6</text>
    <text x="590" y="544" class="b steel" font-size="10" font-weight="600">PAYBACK CHART (10 YR, £k)</text>
    <rect x="590" y="554" width="420" height="118" rx="8" fill="#040E1A"/>
    <line x1="598" y1="654" x2="1002" y2="654" stroke="#0D2847"/>
    <line x1="598" y1="612" x2="1002" y2="612" stroke="#0D2847" stroke-dasharray="2 4"/>
    <line x1="598" y1="570" x2="1002" y2="570" stroke="#0D2847" stroke-dasharray="2 4"/>
    <line x1="598" y1="628" x2="1002" y2="628" stroke="#8A9DB8"/>
    <text x="596" y="574" text-anchor="end" class="m steel" font-size="8">+118</text>
    <text x="596" y="632" text-anchor="end" class="m steel" font-size="8">0</text>
    <text x="596" y="660" text-anchor="end" class="m steel" font-size="8">-50</text>
    <polyline points="598,664 638,652 678,638 718,628 758,614 798,602 838,588 878,576 918,566 958,562 998,560" stroke="#0CC9A8" stroke-width="2.5" fill="none"/>
    <circle cx="758" cy="614" r="5" fill="#0CC9A8"/>
    <text x="766" y="606" class="b teal" font-size="9" font-weight="600">break-even yr 8.4</text>
    <text x="92" y="708" class="b steel" font-size="10" font-weight="600">EPC BAND</text>
    <g transform="translate(590,716)">
      <rect width="60" height="22" rx="4" fill="#EF4444"/><text x="30" y="16" text-anchor="middle" class="f" font-size="12" font-weight="700" fill="#040E1A">F · 28</text>
      <path d="M68 11h158m-4-4l4 4-4 4" stroke="#0CC9A8" stroke-width="1.5" fill="none" stroke-linecap="round" stroke-linejoin="round"/>
      <rect x="92" width="60" height="22" rx="4" fill="#0D2847"/><text x="122" y="16" text-anchor="middle" class="b steel" font-size="11">E</text>
      <rect x="160" width="60" height="22" rx="4" fill="#0D2847"/><text x="190" y="16" text-anchor="middle" class="b steel" font-size="11">D</text>
      <rect x="228" width="60" height="22" rx="4" fill="#0D2847"/><text x="258" y="16" text-anchor="middle" class="b steel" font-size="11">C</text>
      <rect x="296" width="60" height="22" rx="4" fill="#0CC9A8"/><text x="326" y="16" text-anchor="middle" class="f" font-size="12" font-weight="700" fill="#040E1A">B · 84</text>
      <rect x="364" width="56" height="22" rx="4" fill="#0D2847"/><text x="392" y="16" text-anchor="middle" class="b steel" font-size="11">A</text>
    </g>
    <rect x="590" y="788" width="420" height="36" rx="8" class="teal"/>
    <text x="800" y="811" text-anchor="middle" class="b" font-size="12" font-weight="700" fill="#040E1A">Select Balanced →</text>
  </g>
  <!-- C: Premium -->
  <g>
    <rect x="1064" y="308" width="468" height="552" rx="14" fill="#0A1F3A" stroke="#0D2847"/>
    <rect x="1064" y="308" width="468" height="6" rx="3" class="mark"/>
    <text x="1088" y="346" class="f mark" font-size="11" font-weight="700">SCENARIO C · PREMIUM</text>
    <text x="1088" y="378" class="f cloud" font-size="22" font-weight="700">Net-zero ready</text>
    <text x="1088" y="400" class="b steel" font-size="12">Deep retrofit · solar PV · battery · BMS · MVHR</text>
    <line x1="1088" y1="418" x2="1508" y2="418" stroke="#0D2847"/>
    <text x="1088" y="442" class="b steel" font-size="10" font-weight="600">CAPEX</text>
    <text x="1088" y="470" class="f cloud" font-size="22" font-weight="700">£150k</text>
    <text x="1248" y="442" class="b steel" font-size="10" font-weight="600">25-YR NPV</text>
    <text x="1248" y="470" class="f teal" font-size="22" font-weight="700">£195k</text>
    <text x="1408" y="442" class="b steel" font-size="10" font-weight="600">IRR</text>
    <text x="1408" y="470" class="f cloud" font-size="22" font-weight="700">11%</text>
    <text x="1088" y="500" class="b steel" font-size="10" font-weight="600">PAYBACK</text>
    <text x="1088" y="528" class="f" font-size="22" font-weight="700" fill="#F59E0B">12.6 yrs</text>
    <text x="1248" y="500" class="b steel" font-size="10" font-weight="600">tCO₂e SAVED/YR</text>
    <text x="1248" y="528" class="f teal" font-size="22" font-weight="700">62.1</text>
    <text x="1088" y="556" class="b steel" font-size="10" font-weight="600">PAYBACK CHART (15 YR, £k)</text>
    <rect x="1088" y="566" width="420" height="118" rx="8" fill="#040E1A"/>
    <line x1="1096" y1="666" x2="1500" y2="666" stroke="#0D2847"/>
    <line x1="1096" y1="624" x2="1500" y2="624" stroke="#0D2847" stroke-dasharray="2 4"/>
    <line x1="1096" y1="582" x2="1500" y2="582" stroke="#0D2847" stroke-dasharray="2 4"/>
    <line x1="1096" y1="640" x2="1500" y2="640" stroke="#8A9DB8"/>
    <text x="1094" y="586" text-anchor="end" class="m steel" font-size="8">+195</text>
    <text x="1094" y="644" text-anchor="end" class="m steel" font-size="8">0</text>
    <text x="1094" y="672" text-anchor="end" class="m steel" font-size="8">-150</text>
    <polyline points="1096,676 1124,672 1152,666 1180,660 1208,654 1236,648 1264,642 1292,634 1320,624 1348,612 1376,600 1404,590 1432,580 1460,572 1488,566" stroke="#A78BFA" stroke-width="2" fill="none"/>
    <circle cx="1292" cy="634" r="4" fill="#F59E0B"/>
    <text x="1298" y="626" class="b" font-size="9" font-weight="600" fill="#F59E0B">break-even yr 12.6</text>
    <g transform="translate(1088,718)">
      <rect width="60" height="22" rx="4" fill="#EF4444"/><text x="30" y="16" text-anchor="middle" class="f" font-size="12" font-weight="700" fill="#040E1A">F · 28</text>
      <path d="M68 11h226m-4-4l4 4-4 4" stroke="#A78BFA" stroke-width="1.5" fill="none" stroke-linecap="round" stroke-linejoin="round"/>
      <rect x="92" width="60" height="22" rx="4" fill="#0D2847"/><text x="122" y="16" text-anchor="middle" class="b steel" font-size="11">E</text>
      <rect x="160" width="60" height="22" rx="4" fill="#0D2847"/><text x="190" y="16" text-anchor="middle" class="b steel" font-size="11">D</text>
      <rect x="228" width="60" height="22" rx="4" fill="#0D2847"/><text x="258" y="16" text-anchor="middle" class="b steel" font-size="11">C</text>
      <rect x="296" width="60" height="22" rx="4" fill="#0D2847"/><text x="326" y="16" text-anchor="middle" class="b steel" font-size="11">B</text>
      <rect x="364" width="56" height="22" rx="4" fill="#A78BFA"/><text x="392" y="16" text-anchor="middle" class="f" font-size="12" font-weight="700" fill="#040E1A">A · 94</text>
    </g>
    <rect x="1088" y="788" width="420" height="36" rx="8" fill="#0D2847"/>
    <text x="1298" y="811" text-anchor="middle" class="b mark" font-size="12" font-weight="600">Select Premium →</text>
  </g>
</svg>
