<?xml version="1.0" encoding="UTF-8"?>
<svg xmlns="http://www.w3.org/2000/svg" viewBox="0 0 1600 900" role="img" aria-label="Retrofit scenario planner mockup with three side-by-side scenarios comparing CapEx, NPV and payback period">
  <title>Retrofit scenario planner</title>
  <desc>Three retrofit scenarios (Low Cost, Balanced, Premium) compared on CapEx, 25-year NPV and payback period. Synthetic figures for illustration.</desc>
  <defs>
    <linearGradient id="bgG3" x1="0" y1="0" x2="0" y2="1">
      <stop offset="0" stop-color="#040E1A"/>
      <stop offset="1" stop-color="#061525"/>
    </linearGradient>
  </defs>
  <style>
    .f { font-family: 'Plus Jakarta Sans', system-ui, sans-serif; }
    .b { font-family: 'Inter', system-ui, sans-serif; }
    .m { font-family: 'JetBrains Mono', ui-monospace, monospace; }
  </style>

  <rect width="1600" height="900" fill="url(#bgG3)"/>

  <!-- Window chrome -->
  <rect x="0" y="0" width="1600" height="44" fill="#0A1F3A"/>
  <circle cx="22" cy="22" r="6" fill="#EF4444"/>
  <circle cx="44" cy="22" r="6" fill="#F59E0B"/>
  <circle cx="66" cy="22" r="6" fill="#0CC9A8"/>
  <rect x="600" y="11" width="400" height="22" rx="11" fill="#040E1A"/>
  <text x="800" y="26" text-anchor="middle" class="b" font-size="11" fill="#8A9DB8">app.crowagent.ai/dashboard/core/retrofit</text>

  <!-- Top bar -->
  <rect x="0" y="44" width="1600" height="64" fill="#0A1F3A"/>
  <line x1="0" y1="108" x2="1600" y2="108" stroke="#0D2847"/>
  <circle cx="44" cy="76" r="14" fill="#0CC9A8"/>
  <path d="M37 76 L43 82 L52 71" stroke="#040E1A" stroke-width="2.5" fill="none" stroke-linecap="round" stroke-linejoin="round"/>
  <text x="68" y="81" class="f" font-size="17" font-weight="700" fill="#E8F0FA">CrowAgent Core</text>

  <!-- Breadcrumb -->
  <text x="68" y="146" class="b" font-size="12" fill="#8A9DB8">Properties / 12 Mill Street, MK9 1AA / Retrofit planner</text>

  <!-- Header -->
  <text x="68" y="186" class="f" font-size="26" font-weight="700" fill="#E8F0FA">Retrofit scenarios</text>
  <text x="68" y="212" class="b" font-size="13" fill="#8A9DB8">EPC F → C · Three options modelled to HM Treasury Green Book 3.5% NPV over 25 years</text>

  <!-- Compare-tabs -->
  <rect x="68" y="232" width="320" height="34" rx="6" fill="#0D2847"/>
  <rect x="68" y="232" width="160" height="34" rx="6" fill="#0CC9A8" fill-opacity="0.16" stroke="#0CC9A8"/>
  <text x="148" y="253" text-anchor="middle" class="b" font-size="12" font-weight="600" fill="#0CC9A8">Side by side</text>
  <text x="308" y="253" text-anchor="middle" class="b" font-size="12" fill="#8A9DB8">Detailed</text>

  <!-- Scenario card 1: Low Cost -->
  <g>
    <rect x="68" y="290" width="468" height="540" rx="14" fill="#0A1F3A" stroke="#0D2847"/>
    <rect x="68" y="290" width="468" height="6" rx="3" fill="#5BC8FF"/>
    <text x="92" y="328" class="f" font-size="11" font-weight="700" fill="#5BC8FF">SCENARIO A</text>
    <text x="92" y="358" class="f" font-size="22" font-weight="700" fill="#E8F0FA">Low Cost</text>
    <text x="92" y="380" class="b" font-size="12" fill="#8A9DB8">LED + draft-proofing + smart heating</text>

    <!-- KPIs -->
    <line x1="92" y1="402" x2="512" y2="402" stroke="#0D2847"/>
    <text x="92" y="430" class="b" font-size="11" font-weight="600" fill="#8A9DB8">CAPEX</text>
    <text x="92" y="462" class="f" font-size="22" font-weight="700" fill="#E8F0FA">£25,000</text>

    <text x="92" y="498" class="b" font-size="11" font-weight="600" fill="#8A9DB8">25-YR NPV</text>
    <text x="92" y="530" class="f" font-size="22" font-weight="700" fill="#0CC9A8">£42,000</text>

    <text x="92" y="566" class="b" font-size="11" font-weight="600" fill="#8A9DB8">PAYBACK</text>
    <text x="92" y="598" class="f" font-size="22" font-weight="700" fill="#E8F0FA">6.2 yrs</text>

    <text x="92" y="634" class="b" font-size="11" font-weight="600" fill="#8A9DB8">EPC OUTCOME</text>
    <g>
      <rect x="92" y="650" width="34" height="24" rx="4" fill="#EF4444"/>
      <text x="109" y="667" text-anchor="middle" class="f" font-size="13" font-weight="700" fill="#040E1A">F</text>
      <path d="M132 662 L150 662" stroke="#8A9DB8" stroke-width="1.5"/>
      <path d="M146 658 L150 662 L146 666" stroke="#8A9DB8" stroke-width="1.5" fill="none" stroke-linecap="round" stroke-linejoin="round"/>
      <rect x="156" y="650" width="34" height="24" rx="4" fill="#0CC9A8"/>
      <text x="173" y="667" text-anchor="middle" class="f" font-size="13" font-weight="700" fill="#040E1A">C</text>
    </g>

    <!-- Mini bar chart -->
    <text x="92" y="708" class="b" font-size="11" font-weight="600" fill="#8A9DB8">CASHFLOW (5 YR)</text>
    <rect x="92" y="720" width="20" height="40" rx="2" fill="#5BC8FF" fill-opacity="0.4"/>
    <rect x="118" y="710" width="20" height="50" rx="2" fill="#5BC8FF" fill-opacity="0.5"/>
    <rect x="144" y="700" width="20" height="60" rx="2" fill="#5BC8FF" fill-opacity="0.6"/>
    <rect x="170" y="685" width="20" height="75" rx="2" fill="#5BC8FF" fill-opacity="0.8"/>
    <rect x="196" y="668" width="20" height="92" rx="2" fill="#5BC8FF"/>

    <rect x="92" y="788" width="412" height="32" rx="6" fill="#0D2847"/>
    <text x="298" y="809" text-anchor="middle" class="b" font-size="12" font-weight="600" fill="#5BC8FF">Choose Low Cost</text>
  </g>

  <!-- Scenario card 2: Balanced (featured) -->
  <g>
    <rect x="566" y="278" width="468" height="552" rx="14" fill="#0A1F3A" stroke="#0CC9A8" stroke-width="2"/>
    <rect x="566" y="278" width="468" height="6" rx="3" fill="#0CC9A8"/>
    <rect x="784" y="266" width="120" height="24" rx="12" fill="#0CC9A8"/>
    <text x="844" y="282" text-anchor="middle" class="b" font-size="11" font-weight="700" fill="#040E1A">Recommended</text>
    <text x="590" y="320" class="f" font-size="11" font-weight="700" fill="#0CC9A8">SCENARIO B</text>
    <text x="590" y="350" class="f" font-size="22" font-weight="700" fill="#E8F0FA">Balanced</text>
    <text x="590" y="372" class="b" font-size="12" fill="#8A9DB8">Heat pump + insulation + LED + controls</text>

    <line x1="590" y1="394" x2="1010" y2="394" stroke="#0D2847"/>
    <text x="590" y="422" class="b" font-size="11" font-weight="600" fill="#8A9DB8">CAPEX</text>
    <text x="590" y="454" class="f" font-size="22" font-weight="700" fill="#E8F0FA">£50,000</text>

    <text x="590" y="490" class="b" font-size="11" font-weight="600" fill="#8A9DB8">25-YR NPV</text>
    <text x="590" y="522" class="f" font-size="22" font-weight="700" fill="#0CC9A8">£118,000</text>

    <text x="590" y="558" class="b" font-size="11" font-weight="600" fill="#8A9DB8">PAYBACK</text>
    <text x="590" y="590" class="f" font-size="22" font-weight="700" fill="#E8F0FA">8.4 yrs</text>

    <text x="590" y="626" class="b" font-size="11" font-weight="600" fill="#8A9DB8">EPC OUTCOME</text>
    <g>
      <rect x="590" y="642" width="34" height="24" rx="4" fill="#EF4444"/>
      <text x="607" y="659" text-anchor="middle" class="f" font-size="13" font-weight="700" fill="#040E1A">F</text>
      <path d="M630 654 L648 654" stroke="#8A9DB8" stroke-width="1.5"/>
      <path d="M644 650 L648 654 L644 658" stroke="#8A9DB8" stroke-width="1.5" fill="none" stroke-linecap="round" stroke-linejoin="round"/>
      <rect x="654" y="642" width="34" height="24" rx="4" fill="#0CC9A8"/>
      <text x="671" y="659" text-anchor="middle" class="f" font-size="13" font-weight="700" fill="#040E1A">B</text>
    </g>

    <text x="590" y="700" class="b" font-size="11" font-weight="600" fill="#8A9DB8">CASHFLOW (5 YR)</text>
    <rect x="590" y="710" width="20" height="50" rx="2" fill="#0CC9A8" fill-opacity="0.4"/>
    <rect x="616" y="695" width="20" height="65" rx="2" fill="#0CC9A8" fill-opacity="0.5"/>
    <rect x="642" y="678" width="20" height="82" rx="2" fill="#0CC9A8" fill-opacity="0.6"/>
    <rect x="668" y="660" width="20" height="100" rx="2" fill="#0CC9A8" fill-opacity="0.8"/>
    <rect x="694" y="640" width="20" height="120" rx="2" fill="#0CC9A8"/>

    <rect x="590" y="788" width="412" height="32" rx="6" fill="#0CC9A8"/>
    <text x="796" y="809" text-anchor="middle" class="b" font-size="12" font-weight="700" fill="#040E1A">Choose Balanced</text>
  </g>

  <!-- Scenario card 3: Premium -->
  <g>
    <rect x="1064" y="290" width="468" height="540" rx="14" fill="#0A1F3A" stroke="#0D2847"/>
    <rect x="1064" y="290" width="468" height="6" rx="3" fill="#A78BFA"/>
    <text x="1088" y="328" class="f" font-size="11" font-weight="700" fill="#A78BFA">SCENARIO C</text>
    <text x="1088" y="358" class="f" font-size="22" font-weight="700" fill="#E8F0FA">Premium</text>
    <text x="1088" y="380" class="b" font-size="12" fill="#8A9DB8">Full retrofit + solar PV + battery + BMS</text>

    <line x1="1088" y1="402" x2="1508" y2="402" stroke="#0D2847"/>
    <text x="1088" y="430" class="b" font-size="11" font-weight="600" fill="#8A9DB8">CAPEX</text>
    <text x="1088" y="462" class="f" font-size="22" font-weight="700" fill="#E8F0FA">£150,000</text>

    <text x="1088" y="498" class="b" font-size="11" font-weight="600" fill="#8A9DB8">25-YR NPV</text>
    <text x="1088" y="530" class="f" font-size="22" font-weight="700" fill="#0CC9A8">£195,000</text>

    <text x="1088" y="566" class="b" font-size="11" font-weight="600" fill="#8A9DB8">PAYBACK</text>
    <text x="1088" y="598" class="f" font-size="22" font-weight="700" fill="#F59E0B">12.6 yrs</text>

    <text x="1088" y="634" class="b" font-size="11" font-weight="600" fill="#8A9DB8">EPC OUTCOME</text>
    <g>
      <rect x="1088" y="650" width="34" height="24" rx="4" fill="#EF4444"/>
      <text x="1105" y="667" text-anchor="middle" class="f" font-size="13" font-weight="700" fill="#040E1A">F</text>
      <path d="M1128 662 L1146 662" stroke="#8A9DB8" stroke-width="1.5"/>
      <path d="M1142 658 L1146 662 L1142 666" stroke="#8A9DB8" stroke-width="1.5" fill="none" stroke-linecap="round" stroke-linejoin="round"/>
      <rect x="1152 " y="650" width="34" height="24" rx="4" fill="#0CC9A8"/>
      <text x="1169" y="667" text-anchor="middle" class="f" font-size="13" font-weight="700" fill="#040E1A">A</text>
    </g>

    <text x="1088" y="708" class="b" font-size="11" font-weight="600" fill="#8A9DB8">CASHFLOW (5 YR)</text>
    <rect x="1088" y="720" width="20" height="40" rx="2" fill="#A78BFA" fill-opacity="0.3"/>
    <rect x="1114" y="708" width="20" height="52" rx="2" fill="#A78BFA" fill-opacity="0.45"/>
    <rect x="1140" y="690" width="20" height="70" rx="2" fill="#A78BFA" fill-opacity="0.6"/>
    <rect x="1166" y="668" width="20" height="92" rx="2" fill="#A78BFA" fill-opacity="0.75"/>
    <rect x="1192" y="640" width="20" height="120" rx="2" fill="#A78BFA"/>

    <rect x="1088" y="788" width="412" height="32" rx="6" fill="#0D2847"/>
    <text x="1294" y="809" text-anchor="middle" class="b" font-size="12" font-weight="600" fill="#A78BFA">Choose Premium</text>
  </g>
</svg>
